<svg xmlns="http://www.w3.org/2000/svg" xmlns:xlink="http://www.w3.org/1999/xlink" xmlns:lucid="lucid" width="500" height="397"><g transform="translate(-222 -424)" lucid:page-tab-id="1A9oqCsbHWSJ"><path d="M424.1 715c0-8.28 6.72-15 15-15h156c8.28 0 15 6.72 15 15v90c0 8.28-6.72 15-15 15h-156c-8.28 0-15-6.72-15-15z" stroke="#000" stroke-width="2" fill="#fff"/><use xlink:href="#a" transform="matrix(1,0,0,1,429.1,705) translate(3.9876543209876587 101.11111111111111)"/><use xlink:href="#b" transform="matrix(1,0,0,1,429.1,705) translate(81.20987654320987 101.11111111111111)"/><path d="M467.1 467c0-8.28 6.72-15 15-15h130c8.28 0 15 6.72 15 15v90c0 8.28-6.72 15-15 15h-130c-8.28 0-15-6.72-15-15z" stroke="#000" stroke-width="2" fill="#e2e9ef"/><use xlink:href="#c" transform="matrix(1,0,0,1,472.1,457) translate(13.981481481481481 59.44444444444444)"/><use xlink:href="#d" transform="matrix(1,0,0,1,472.1,457) translate(90.40123456790123 59.44444444444444)"/><path d="M477.1 475c0-8.28 6.72-15 15-15h130c8.28 0 15 6.72 15 15v90c0 8.28-6.72 15-15 15h-130c-8.28 0-15-6.72-15-15z" stroke="#000" stroke-width="2" fill="#c9dfef"/><use xlink:href="#c" transform="matrix(1,0,0,1,482.1,465) translate(13.981481481481481 59.44444444444444)"/><use xlink:href="#d" transform="matrix(1,0,0,1,482.1,465) translate(90.40123456790123 59.44444444444444)"/><path d="M796.9 879c0-8.28 6.72-15 15-15h130c8.28 0 15 6.72 15 15v90c0 8.28-6.72 15-15 15h-130c-8.28 0-15-6.72-15-15z" stroke="#000" stroke-width="2" fill="#3db39e" fill-opacity=".3"/><use xlink:href="#e" transform="matrix(1,0,0,1,801.9,869.0000000000001) translate(33.70370370370371 59.44444444444444)"/><use xlink:href="#f" transform="matrix(1,0,0,1,801.9,869.0000000000001) translate(85.49382716049382 59.44444444444444)"/><path d="M876.9 821v23.76" stroke="#000" stroke-width="2" fill="none"/><path d="M877.9 821h-2v-1h2zM876.9 859.76l-4.64-14.26h9.28z"/><path d="M876.9 863l-6-18.5h12zm-3.26-16.5l3.26 10.03 3.26-10.03zM502.17 641.5l4.08.54 3.84 1.6 3.32 2.54 2.55 3.33 1.6 3.85.53 4.08v23.33h-2v-23.2l-.48-3.7-1.4-3.34-2.23-2.9-2.92-2.25-3.35-1.4-3.7-.47h-27.67v-2zm-178.7-10.37l1.4 3.35 2.24 2.9 2.92 2.25 3.35 1.4 3.7.47h27.67v2h-27.8l-4.1-.54-3.83-1.6-3.32-2.54-2.55-3.33-1.6-3.85-.53-4.08V586h2v41.43zM323 586h-2v-1h2zM517.1 695.76l-4.64-14.26h9.28z"/><path d="M517.1 699l-6-18.5h12zm-3.26-16.5l3.26 10.03 3.26-10.03z"/><use xlink:href="#g" transform="matrix(1,0,0,1,364.7351851851852,615.8333333333334) translate(0 17.77777777777778)"/><use xlink:href="#h" transform="matrix(1,0,0,1,364.7351851851852,615.8333333333334) translate(40.617283950617285 17.77777777777778)"/><use xlink:href="#i" transform="matrix(1,0,0,1,364.7351851851852,615.8333333333334) translate(0 44.44444444444444)"/><path d="M877.9 699h-2v-19h2zm.1-72.33h-2v-17.43h2zM877.9 700h-2v-1h2zM881.64 608.5h-9.28l4.64-14.26z"/><path d="M883 609.5h-12l6-18.5zm-9.26-2h6.52L877 597.47z"/><use xlink:href="#j" transform="matrix(1,0,0,1,819.5543209876544,626.6666666666667) translate(0 17.77777777777778)"/><use xlink:href="#k" transform="matrix(1,0,0,1,819.5543209876544,626.6666666666667) translate(54.32098765432099 17.77777777777778)"/><use xlink:href="#l" transform="matrix(1,0,0,1,819.5543209876544,626.6666666666667) translate(0 44.44444444444444)"/><use xlink:href="#m" transform="matrix(1,0,0,1,819.5543209876544,626.6666666666667) translate(32.03703703703704 44.44444444444444)"/><path d="M518.1 1020.76h-2v-64.1h2zm0-117.43h-2V821h2zM518.1 821h-2v-1h2zM517.1 1035.76l-4.64-14.26h9.28z"/><path d="M517.1 1039l-6-18.5h12zm-3.26-16.5l3.26 10.03 3.26-10.03z"/><use xlink:href="#n" transform="matrix(1,0,0,1,435.6802469135803,903.3333333333334) translate(0 17.77777777777778)"/><use xlink:href="#o" transform="matrix(1,0,0,1,435.6802469135803,903.3333333333334) translate(54.32098765432099 17.77777777777778)"/><use xlink:href="#p" transform="matrix(1,0,0,1,435.6802469135803,903.3333333333334) translate(125.80246913580247 17.77777777777778)"/><use xlink:href="#q" transform="matrix(1,0,0,1,435.6802469135803,903.3333333333334) translate(150.49382716049382 17.77777777777778)"/><use xlink:href="#r" transform="matrix(1,0,0,1,435.6802469135803,903.3333333333334) translate(0 44.44444444444444)"/><use xlink:href="#s" transform="matrix(1,0,0,1,435.6802469135803,903.3333333333334) translate(109.62962962962965 44.44444444444444)"/><path d="M657.88 761h-28.54v-2h28.54zm119.78 0h-28.54v-2h28.54zM628.6 764.64L614.34 760l14.26-4.64z"/><path d="M629.6 766l-18.5-6 18.5-6zm-12.03-6l10.03 3.26v-6.52zM792.66 760l-14.26 4.64v-9.28z"/><path d="M795.9 760l-18.5 6v-12zm-16.5 3.26l10.03-3.26-10.03-3.26z"/><use xlink:href="#t" transform="matrix(1,0,0,1,657.8827160493827,706.6666666666666) translate(0 17.77777777777778)"/><use xlink:href="#u" transform="matrix(1,0,0,1,657.8827160493827,706.6666666666666) translate(41.97530864197531 17.77777777777778)"/><use xlink:href="#v" transform="matrix(1,0,0,1,657.8827160493827,706.6666666666666) translate(0 44.44444444444444)"/><use xlink:href="#w" transform="matrix(1,0,0,1,657.8827160493827,706.6666666666666) translate(24.691358024691358 44.44444444444444)"/><use xlink:href="#x" transform="matrix(1,0,0,1,657.8827160493827,706.6666666666666) translate(0 71.11111111111111)"/><use xlink:href="#y" transform="matrix(1,0,0,1,657.8827160493827,706.6666666666666) translate(0 97.77777777777777)"/><path d="M663.8 531h-15.7v-2h15.7zm113.96 0h-12.98v-2h12.98z"/><path d="M648.1 531h-1v-2h1zM792.76 530l-14.26 4.64v-9.28z"/><path d="M796 530l-18.5 6v-12zm-16.5 3.26l10.03-3.26-10.03-3.26z"/><use xlink:href="#g" transform="matrix(1,0,0,1,663.7892064595219,503.3333333333333) translate(0 17.77777777777778)"/><use xlink:href="#z" transform="matrix(1,0,0,1,663.7892064595219,503.3333333333333) translate(40.617283950617285 17.77777777777778)"/><use xlink:href="#v" transform="matrix(1,0,0,1,663.7892064595219,503.3333333333333) translate(0 44.44444444444444)"/><use xlink:href="#A" transform="matrix(1,0,0,1,663.7892064595219,503.3333333333333) translate(24.691358024691358 44.44444444444444)"/><path d="M487.1 485c0-8.28 6.72-15 15-15h130c8.28 0 15 6.72 15 15v90c0 8.28-6.72 15-15 15h-130c-8.28 0-15-6.72-15-15z" stroke="#000" stroke-width="2" fill="#b2d6ef"/><use xlink:href="#c" transform="matrix(1,0,0,1,492.1,475) translate(13.981481481481481 59.44444444444444)"/><use xlink:href="#d" transform="matrix(1,0,0,1,492.1,475) translate(90.40123456790123 59.44444444444444)"/><path d="M567.1 550.33c0-2.76 2.24-5 5-5H629c2.76 0 5 2.24 5 5v28.93c0 2.77-2.24 5-5 5h-56.9c-2.76 0-5-2.23-5-5z" stroke="#000" stroke-width="2" fill="#fff"/><use xlink:href="#B" transform="matrix(1,0,0,1,572.0999999999999,550.3333333333334) translate(7.05555555555555 10.666666666666668)"/><use xlink:href="#C" transform="matrix(1,0,0,1,572.0999999999999,550.3333333333334) translate(5.222222222222218 26.666666666666668)"/><path d="M439.6 524.5l3.7 1.54 3.2 2.46 2.46 3.2 1.53 3.7.5 3.92v10.4l.48 3.7 1.4 3.36 2.23 2.9 2.92 2.24 3.35 1.4 3.7.48h43.5v2h-43.64l-4.08-.54-3.84-1.6-3.32-2.54-2.55-3.33-1.6-3.85-.53-4.1v-10.4l-.46-3.54-1.33-3.2-2.13-2.77-2.78-2.14-3.2-1.34-3.55-.46h-14.3v-2h14.43zm126.5 39.3v2h-9.4v-2zM567.1 565.8h-1v-2h1zM420.5 529.64L406.24 525l14.26-4.64z"/><path d="M421.5 531l-18.5-6 18.5-6zm-12.03-6l10.03 3.26v-6.52z"/><use xlink:href="#D" transform="matrix(1,0,0,1,508.5582160507718,551.4654130901288) translate(0 17.77777777777778)"/><path d="M597 474v38.93h47V474z" fill-opacity="0"/><path d="M615.72 477.75v4.76h-9.5v4.76h-4.77v4.86h-4.06l-.1.72c-.2 2.4.12 4.8 1.1 7l.44.86.05.08c2.92 4.98 8.07 7.1 13.7 7.1 10.86 0 19.82-4.87 23.94-15.12h.6c2.55 0 5.06-.86 6.3-3.3l.35-.67-.66-.4c-.98-.55-2.15-.8-3.32-.8-.75 0-1.5.1-2.2.3-.22-1.92-1.48-3.6-2.98-4.8l-.6-.48-.5.57c-1 1.15-1.3 3.08-1.16 4.57.1 1.1.44 2.2 1.1 3.07-.5.3-1.08.55-1.6.73-1.05.35-2.2.55-3.3.55h-2.4v-4.86h-4.76v-9.5z"/><path d="M602.24 488.05v4.12h4.12v-4.12zM607 483.3v4.12h4.12v-4.12zM607 488.05v4.12h4.12v-4.12zM611.75 488.05v4.12h4.13v-4.12zM611.75 483.3v4.12h4.13v-4.12zM616.5 488.05v4.12h4.13v-4.12zM616.5 483.3v4.12h4.13v-4.12zM616.5 478.54v4.12h4.13v-4.12zM621.26 488.05v4.12h4.12v-4.12zM610.86 498.86c-.63 0-1.14.5-1.14 1.13 0 .62.5 1.13 1.14 1.13.63 0 1.14-.5 1.14-1.14 0-.63-.5-1.14-1.14-1.14z" fill="#fff"/><path d="M610.86 499.18c-.45 0-.8.36-.8.8 0 .46.35.83.8.83.45 0 .8-.36.8-.8 0-.1 0-.22-.05-.32-.04.1-.15.17-.28.17-.18 0-.33-.15-.33-.33 0-.13.06-.23.16-.3-.1-.02-.2-.04-.3-.04z"/><path d="M608.66 501.9c-1.05.3-2.3.5-3.76.6-.55.02-1.13.03-1.74.03-.7 0-1.44-.02-2.2-.06 2.57 2.58 5.75 4.57 11.63 4.6.42 0 .85 0 1.28-.02-2.8-1.34-4.36-3.16-5.22-5.14z" fill="#fff"/><path d="M517.7 712.3c-18.44 0-33.5 14.3-34.35 32.3v3.22c.8 17 14.3 30.74 31.38 32.18h5.94c17.14-1.44 30.7-15.28 31.4-32.4.02-.46.03-.92.03-1.4 0-18.73-15.4-33.9-34.4-33.9z" fill="#00a0e1"/><path d="M505.03 731.23l-3.65 3.23-12.47 15.35L519.4 780h1.3c17.13-1.44 30.68-15.28 31.4-32.4l-6.12-6.1-5.34 6.57-10.85-10.8-1.66 2.83-4.45-4.38-10.02 4z" fill="#303030" fill-opacity=".3"/><path d="M540.2 736.65c5.35 3.87 8.46 7.73 8.6 7.9l1.1 1.38-1.1 1.38c-.14.17-3.26 4.03-8.6 7.9-3.18 2.3-6.48 4.1-9.83 5.43 4.23-3.54 6.9-8.8 6.9-14.7 0-5.9-2.67-11.16-6.9-14.7 3.36 1.3 6.65 3.12 9.83 5.42zm-9.82-5.42M505.03 731.23c-3.34 1.3-6.64 3.12-9.8 5.42-5.36 3.87-8.48 7.73-8.6 7.9l-1.12 1.38 1.12 1.38c.13.17 3.25 4.03 8.6 7.9 3.17 2.3 6.47 4.1 9.8 5.43-4.2-3.54-6.88-8.8-6.88-14.7 0-5.9 2.67-11.16 6.9-14.7zm0 0" fill="#fff"/><path d="M517.7 732.63c-.17 0-.34.05-.5.16-1.4 1-5.72 3.8-11 4.28-.65.05-1.13.58-1.15 1.2-.04 2.72.24 9.75 3.82 15.1l14.78-17.66c-2.6-1-4.57-2.3-5.44-2.93-.14-.12-.32-.17-.5-.17zM528.27 736.97l-16.46 19.67c1.5 1.24 3.35 2.23 5.6 2.82.1.03.2.04.3.04.1 0 .22 0 .32-.04 11.73-3.1 12.4-17.06 12.34-21.17 0-.64-.5-1.17-1.13-1.22l-.96-.1z" fill="#fff"/><path d="M797 485c0-8.28 6.72-15 15-15h130c8.28 0 15 6.72 15 15v90c0 8.28-6.72 15-15 15H812c-8.28 0-15-6.72-15-15z" stroke="#000" stroke-width="2" fill="#b2d6ef"/><use xlink:href="#E" transform="matrix(1,0,0,1,802,475) translate(26.944444444444436 46.111111111111114)"/><use xlink:href="#F" transform="matrix(1,0,0,1,802,475) translate(34.35185185185185 72.77777777777777)"/><path d="M915.57 474v31H953v-31z" fill-opacity="0"/><path d="M930.48 477v3.77h-7.57v3.8h-3.78v3.86h-3.24l-.05.57c-.18 1.9.08 3.83.87 5.57l.34.7.04.06c2.33 3.96 6.44 5.64 10.9 5.64 8.66 0 15.8-3.87 19.08-12.03h.48c2.03 0 4.02-.7 5.02-2.63l.27-.52-.52-.3c-.76-.45-1.7-.66-2.63-.66-.6 0-1.2.08-1.75.25-.17-1.53-1.18-2.87-2.38-3.83l-.47-.38-.4.46c-.8.92-1.03 2.46-.93 3.64.08.87.36 1.75.9 2.45-.4.26-.88.45-1.3.6-.83.27-1.74.43-2.62.43h-1.9v-3.87H935V477z"/><path d="M919.75 485.2v3.27h3.28v-3.28zM923.54 481.4v3.3h3.28v-3.3zM923.54 485.2v3.27h3.28v-3.28zM927.32 485.2v3.27h3.28v-3.28zM927.32 481.4v3.3h3.28v-3.3zM931.1 485.2v3.27h3.3v-3.28zM931.1 481.4v3.3h3.3v-3.3zM931.1 477.62v3.28h3.3v-3.28zM934.9 485.2v3.27h3.28v-3.28zM926.6 493.8c-.5 0-.9.4-.9.9s.4.9.9.9.92-.4.92-.9-.4-.9-.9-.9z" fill="#fff"/><path d="M926.6 494.05c-.35 0-.64.3-.64.65 0 .36.3.65.65.65.37 0 .66-.3.66-.65 0-.1-.02-.17-.05-.25-.03.08-.12.14-.22.14-.15 0-.27-.13-.27-.28 0-.1.07-.18.15-.23-.07-.03-.16-.05-.24-.05z"/><path d="M924.86 496.23c-.83.24-1.83.4-3 .45-.43.03-.9.04-1.38.04-.56 0-1.14-.02-1.76-.05 2.05 2.06 4.6 3.64 9.27 3.66H929c-2.24-1.08-3.48-2.53-4.16-4.1z" fill="#fff"/><path d="M796.9 715c0-8.28 6.72-15 15-15h130c8.28 0 15 6.72 15 15v90c0 8.28-6.72 15-15 15h-130c-8.28 0-15-6.72-15-15z" stroke="#000" stroke-width="2" fill="#3db39e" fill-opacity=".31"/><use xlink:href="#G" transform="matrix(1,0,0,1,801.9,705) translate(15.061728395061728 74.44444444444446)"/><use xlink:href="#H" transform="matrix(1,0,0,1,801.9,705) translate(33.67283950617284 101.11111111111111)"/><path d="M879.25 714c-.38.15-19.75 7.58-19.7 7.58v13.95c0 9.66 2.75 22.27 19.66 26.98h.1c16.86-4.7 19.62-17.54 19.62-26.97.04-4.77.04-13.95.04-13.95.04 0-19.22-7.4-19.7-7.58z" fill="#3db39e" fill-opacity=".31"/><path d="M879.25 714l-19.7 7.58v13.95c0 9.66 2.75 22.27 19.66 26.98h.05z" fill="#e7e7e7"/><path d="M863.3 723.9zm0 0zm15.9-6.1c-.33.1-15.85 6.1-15.9 6.1v11.7c0 8.12 1.58 19.2 15.9 23.13 14.3-3.94 15.93-15.2 15.93-23.12.04-4 .04-11.4 0-11.4.04 0-15.5-6.26-15.92-6.4z" fill="#3db39e"/><path d="M863.33 723.9zm0 0zm15.92-6.1c-.34.1-15.86 6.1-15.92 6.1v11.7c0 8.12 1.6 19.2 15.92 23.13z" fill="#3aaa96"/><path d="M879.25 729.16c-.42 0-.8.23-1 .6l-1.7 3.5-3.93.57c-.42.07-.76.34-.87.7-.12.4-.04.8.26 1.08l2.9 2.85-.7 3.94c-.06.37.12.8.46 1.02.2.1.42.2.65.2.2 0 .4-.05.54-.13l3.45-1.83 3.44 1.82c.15.07.34.1.53.1.23 0 .45-.07.64-.18.35-.23.54-.65.47-1.03l-.68-3.95 2.87-2.84c.22-.3.34-.68.2-1.06-.13-.37-.47-.64-.9-.7l-3.93-.58-1.7-3.5c-.2-.37-.57-.6-1-.6z" fill="#f9f9f9"/><path d="M437 1055c0-8.28 6.72-15 15-15h130c8.28 0 15 6.72 15 15v90c0 8.28-6.72 15-15 15H452c-8.28 0-15-6.72-15-15z" stroke="#000" stroke-width="2" fill="#ffe8c8"/><use xlink:href="#I" transform="matrix(1,0,0,1,442,1045) translate(38.05555555555555 101.11111111111111)"/><path d="M483.83 1053c-2.62 0-4.76 2.13-4.76 4.76v41.5H558v-41.54c-.02-2.6-2.14-4.72-4.76-4.72z" fill="#333"/><path d="M534.87 1126.48H502.2c0-3 2.45-5.44 5.45-5.44h21.77c3 0 5.45 2.44 5.45 5.44z" fill="#e8edee"/><path d="M511.73 1110.15l-2.72 10.9h19.06l-2.72-10.9z" fill="#b0b6bb"/><path d="M479.07 1099.26v6.13c0 2.62 2.14 4.75 4.76 4.75h69.4c2.64 0 4.77-2.13 4.77-4.76v-6.14z" fill="#e8edee"/><path d="M494.05 1072.05v21.78h8.16v-21.78z" fill="#25ae88"/><path d="M502.2 1063.88v29.95h8.18v-29.95z" fill="#dd691d"/><path d="M510.38 1076.13v17.7h8.16v-17.7z" fill="#d38479"/><path d="M518.54 1067.97v25.86h8.16v-25.86z" fill="#ecba16"/><path d="M526.7 1058.45v35.38h8.17v-35.38z" fill="#dd691d"/><path d="M534.87 1063.88v29.95h8.16v-29.95z" fill="#25ae88"/><path d="M488.6 1092.46c-.75 0-1.36.62-1.36 1.37 0 .75.6 1.36 1.36 1.36h59.87c.75 0 1.37-.62 1.37-1.37 0-.75-.62-1.37-1.37-1.37z" fill="#e8edee"/><path d="M1000 444H840v168h160z" fill-opacity="0"/><path d="M984 444h16v168h-16" stroke="#000" stroke-width="2" fill="none"/><path d="M1000 679H840v321h160z" fill-opacity="0"/><path d="M984 679h16v321h-16" stroke="#000" stroke-width="2" fill="none"/><path d="M1000 1020H840v160h160z" fill-opacity="0"/><path d="M984 1020h16v160h-16" stroke="#000" stroke-width="2" fill="none"/><path d="M1020 493.67h160v68.66h-160z" stroke="#000" stroke-opacity="0" stroke-width="2" fill="#fff" fill-opacity="0"/><g><use xlink:href="#J" transform="matrix(1,0,0,1,1025,498.6666666666667) translate(0 19.72222222222222)"/><use xlink:href="#K" transform="matrix(1,0,0,1,1025,498.6666666666667) translate(0 49.05555555555556)"/></g><path d="M1020 795.33h160V864h-160z" stroke="#000" stroke-opacity="0" stroke-width="2" fill="#fff" fill-opacity="0"/><g><use xlink:href="#L" transform="matrix(1,0,0,1,1025,800.3333333333334) translate(0 19.72222222222222)"/><use xlink:href="#M" transform="matrix(1,0,0,1,1025,800.3333333333334) translate(0 49.05555555555556)"/></g><path d="M1020 1068.33h160V1137h-160z" stroke="#000" stroke-opacity="0" stroke-width="2" fill="#fff" fill-opacity="0"/><g><use xlink:href="#N" transform="matrix(1,0,0,1,1025,1073.3333333333333) translate(0 19.72222222222222)"/><use xlink:href="#O" transform="matrix(1,0,0,1,1025,1073.3333333333333) translate(0 49.05555555555556)"/></g><path d="M242 480c0-8.28 6.72-15 15-15h130c8.28 0 15 6.72 15 15v90c0 8.28-6.72 15-15 15H257c-8.28 0-15-6.72-15-15z" stroke="#000" stroke-width="2" fill="#bdd9ef"/><g><use xlink:href="#P" transform="matrix(1,0,0,1,247,470) translate(21.388888888888886 101.11111111111111)"/></g><path d="M322 487.25c-15.18 0-27.58 3.7-28.45 8.37h-.05v38.76h.05c.87 4.67 13.28 8.37 28.45 8.37s27.58-3.7 28.45-8.37h.05V495.62h-.05c-.87-4.67-13.27-8.37-28.45-8.37z" fill="#424a60"/><path d="M293.5 521.28v13.1h.05c.87 4.67 13.28 8.37 28.45 8.37s27.58-3.7 28.45-8.37h.05v-13.1c0 4.92-12.76 8.9-28.5 8.9s-28.5-3.98-28.5-8.9zM293.5 520.76v.52c0-.17.02-.35.05-.52zM350.45 520.76c.03.17.05.35.05.52v-.52z" fill="#424a60"/><path d="M293.5 508.72v13.08h.05c.87 4.68 13.28 8.38 28.45 8.38s27.58-3.7 28.45-8.38h.05v-13.08c0 4.9-12.76 8.9-28.5 8.9s-28.5-4-28.5-8.9zM293.5 508.2v.52c0-.18.02-.35.05-.52zM350.45 508.2c.03.17.05.34.05.52v-.52z" fill="#556080"/><path d="M322 487.25c-15.74 0-28.5 3.98-28.5 8.9s12.76 8.9 28.5 8.9 28.5-3.98 28.5-8.9-12.76-8.9-28.5-8.9z" fill="#7fabda"/><path d="M293.5 496.15v13.1h.05c.87 4.66 13.28 8.37 28.45 8.37s27.58-3.7 28.45-8.38h.05v-13.1c0 4.93-12.76 8.9-28.5 8.9s-28.5-3.97-28.5-8.9z" fill="#7383bf"/><path d="M293.5 495.62v.53c0-.18.02-.35.05-.53zM350.45 495.62c.03.18.05.35.05.53v-.53z" fill="#7383bf"/><defs><path d="M147 0H94L2-248h55l64 206c17-72 42-137 63-206h54" id="Q"/><path d="M24 0v-248h52V0H24" id="R"/><path d="M240-174c0 40-23 61-54 70L253 0h-59l-57-94H76V0H24v-248c93 4 217-23 216 74zM76-134c48-2 112 12 112-38 0-48-66-32-112-35v73" id="S"/><path d="M136-208V0H84v-208H4v-40h212v40h-80" id="T"/><path d="M146-102V0H94v-102L6-248h54l60 105 60-105h54" id="U"/><g id="a"><use transform="matrix(0.06172839506172839,0,0,0.06172839506172839,0,0)" xlink:href="#Q"/><use transform="matrix(0.06172839506172839,0,0,0.06172839506172839,14.814814814814813,0)" xlink:href="#R"/><use transform="matrix(0.06172839506172839,0,0,0.06172839506172839,20.98765432098765,0)" xlink:href="#S"/><use transform="matrix(0.06172839506172839,0,0,0.06172839506172839,36.9753086419753,0)" xlink:href="#R"/><use transform="matrix(0.06172839506172839,0,0,0.06172839506172839,43.148148148148145,0)" xlink:href="#T"/><use transform="matrix(0.06172839506172839,0,0,0.06172839506172839,56.666666666666664,0)" xlink:href="#U"/></g><path d="M169-182c-1-43-94-46-97-3 18 66 151 10 154 114 3 95-165 93-204 36-6-8-10-19-12-30l50-8c3 46 112 56 116 5-17-69-150-10-154-114-4-87 153-88 188-35 5 8 8 18 10 28" id="V"/><path d="M24 0v-248h195v40H76v63h132v40H76v65h150V0H24" id="W"/><g id="b"><use transform="matrix(0.06172839506172839,0,0,0.06172839506172839,0,0)" xlink:href="#V"/><use transform="matrix(0.06172839506172839,0,0,0.06172839506172839,14.814814814814813,0)" xlink:href="#W"/><use transform="matrix(0.06172839506172839,0,0,0.06172839506172839,29.629629629629626,0)" xlink:href="#S"/><use transform="matrix(0.06172839506172839,0,0,0.06172839506172839,45.18518518518518,0)" xlink:href="#Q"/><use transform="matrix(0.06172839506172839,0,0,0.06172839506172839,60,0)" xlink:href="#W"/><use transform="matrix(0.06172839506172839,0,0,0.06172839506172839,74.81481481481481,0)" xlink:href="#S"/></g><path d="M30-248c118-7 216 8 213 122C240-48 200 0 122 0H30v-248zM63-27c89 8 146-16 146-99s-60-101-146-95v194" id="X"/><path d="M100-194c62-1 85 37 85 99 1 63-27 99-86 99S16-35 15-95c0-66 28-99 85-99zM99-20c44 1 53-31 53-75 0-43-8-75-51-75s-53 32-53 75 10 74 51 75" id="Y"/><path d="M96-169c-40 0-48 33-48 73s9 75 48 75c24 0 41-14 43-38l32 2c-6 37-31 61-74 61-59 0-76-41-82-99-10-93 101-131 147-64 4 7 5 14 7 22l-32 3c-4-21-16-35-41-35" id="Z"/><path d="M143 0L79-87 56-68V0H24v-261h32v163l83-92h37l-77 82L181 0h-38" id="aa"/><path d="M100-194c63 0 86 42 84 106H49c0 40 14 67 53 68 26 1 43-12 49-29l28 8c-11 28-37 45-77 45C44 4 14-33 15-96c1-61 26-98 85-98zm52 81c6-60-76-77-97-28-3 7-6 17-6 28h103" id="ab"/><path d="M114-163C36-179 61-72 57 0H25l-1-190h30c1 12-1 29 2 39 6-27 23-49 58-41v29" id="ac"/><g id="c"><use transform="matrix(0.06172839506172839,0,0,0.06172839506172839,0,0)" xlink:href="#X"/><use transform="matrix(0.06172839506172839,0,0,0.06172839506172839,15.987654320987653,0)" xlink:href="#Y"/><use transform="matrix(0.06172839506172839,0,0,0.06172839506172839,28.333333333333332,0)" xlink:href="#Z"/><use transform="matrix(0.06172839506172839,0,0,0.06172839506172839,39.44444444444444,0)" xlink:href="#aa"/><use transform="matrix(0.06172839506172839,0,0,0.06172839506172839,50.55555555555556,0)" xlink:href="#ab"/><use transform="matrix(0.06172839506172839,0,0,0.06172839506172839,62.901234567901234,0)" xlink:href="#ac"/></g><path d="M197 0v-115H63V0H30v-248h33v105h134v-105h34V0h-34" id="ad"/><path d="M135-143c-3-34-86-38-87 0 15 53 115 12 119 90S17 21 10-45l28-5c4 36 97 45 98 0-10-56-113-15-118-90-4-57 82-63 122-42 12 7 21 19 24 35" id="ae"/><path d="M59-47c-2 24 18 29 38 22v24C64 9 27 4 27-40v-127H5v-23h24l9-43h21v43h35v23H59v120" id="af"/><g id="d"><use transform="matrix(0.06172839506172839,0,0,0.06172839506172839,0,0)" xlink:href="#ad"/><use transform="matrix(0.06172839506172839,0,0,0.06172839506172839,15.987654320987653,0)" xlink:href="#Y"/><use transform="matrix(0.06172839506172839,0,0,0.06172839506172839,28.333333333333332,0)" xlink:href="#ae"/><use transform="matrix(0.06172839506172839,0,0,0.06172839506172839,39.44444444444444,0)" xlink:href="#af"/></g><path d="M212-179c-10-28-35-45-73-45-59 0-87 40-87 99 0 60 29 101 89 101 43 0 62-24 78-52l27 14C228-24 195 4 139 4 59 4 22-46 18-125c-6-104 99-153 187-111 19 9 31 26 39 46" id="ag"/><path d="M137 0h-34L2-248h35l83 218 83-218h36" id="ah"/><path d="M30 0v-248h187v28H63v79h144v27H63v87h162V0H30" id="ai"/><g id="e"><use transform="matrix(0.06172839506172839,0,0,0.06172839506172839,0,0)" xlink:href="#ag"/><use transform="matrix(0.06172839506172839,0,0,0.06172839506172839,15.987654320987653,0)" xlink:href="#ah"/><use transform="matrix(0.06172839506172839,0,0,0.06172839506172839,30.80246913580247,0)" xlink:href="#ai"/></g><path d="M160-131c35 5 61 23 61 61C221 17 115-2 30 0v-248c76 3 177-17 177 60 0 33-19 50-47 57zm-97-11c50-1 110 9 110-42 0-47-63-36-110-37v79zm0 115c55-2 124 14 124-45 0-56-70-42-124-44v89" id="aj"/><g id="f"><use transform="matrix(0.06172839506172839,0,0,0.06172839506172839,0,0)" xlink:href="#X"/><use transform="matrix(0.06172839506172839,0,0,0.06172839506172839,15.987654320987653,0)" xlink:href="#aj"/></g><path d="M115-194c55 1 70 41 70 98S169 2 115 4C84 4 66-9 55-30l1 105H24l-1-265h31l2 30c10-21 28-34 59-34zm-8 174c40 0 45-34 45-75s-6-73-45-74c-42 0-51 32-51 76 0 43 10 73 51 73" id="ak"/><path d="M84 4C-5 8 30-112 23-190h32v120c0 31 7 50 39 49 72-2 45-101 50-169h31l1 190h-30c-1-10 1-25-2-33-11 22-28 36-60 37" id="al"/><path d="M24 0v-261h32V0H24" id="am"/><g id="g"><use transform="matrix(0.06172839506172839,0,0,0.06172839506172839,0,0)" xlink:href="#ak"/><use transform="matrix(0.06172839506172839,0,0,0.06172839506172839,12.345679012345679,0)" xlink:href="#al"/><use transform="matrix(0.06172839506172839,0,0,0.06172839506172839,24.691358024691358,0)" xlink:href="#am"/><use transform="matrix(0.06172839506172839,0,0,0.06172839506172839,29.5679012345679,0)" xlink:href="#am"/></g><path d="M141-36C126-15 110 5 73 4 37 3 15-17 15-53c-1-64 63-63 125-63 3-35-9-54-41-54-24 1-41 7-42 31l-33-3c5-37 33-52 76-52 45 0 72 20 72 64v82c-1 20 7 32 28 27v20c-31 9-61-2-59-35zM48-53c0 20 12 33 32 33 41-3 63-29 60-74-43 2-92-5-92 41" id="an"/><g id="h"><use transform="matrix(0.06172839506172839,0,0,0.06172839506172839,0,0)" xlink:href="#am"/><use transform="matrix(0.06172839506172839,0,0,0.06172839506172839,4.876543209876543,0)" xlink:href="#an"/><use transform="matrix(0.06172839506172839,0,0,0.06172839506172839,17.22222222222222,0)" xlink:href="#af"/><use transform="matrix(0.06172839506172839,0,0,0.06172839506172839,23.39506172839506,0)" xlink:href="#ab"/><use transform="matrix(0.06172839506172839,0,0,0.06172839506172839,35.74074074074074,0)" xlink:href="#ae"/><use transform="matrix(0.06172839506172839,0,0,0.06172839506172839,46.85185185185185,0)" xlink:href="#af"/></g><path d="M24-231v-30h32v30H24zM24 0v-190h32V0H24" id="ao"/><path d="M117-194c89-4 53 116 60 194h-32v-121c0-31-8-49-39-48C34-167 62-67 57 0H25l-1-190h30c1 10-1 24 2 32 11-22 29-35 61-36" id="ap"/><path d="M101-234c-31-9-42 10-38 44h38v23H63V0H32v-167H5v-23h27c-7-52 17-82 69-68v24" id="aq"/><path d="M210-169c-67 3-38 105-44 169h-31v-121c0-29-5-50-35-48C34-165 62-65 56 0H25l-1-190h30c1 10-1 24 2 32 10-44 99-50 107 0 11-21 27-35 58-36 85-2 47 119 55 194h-31v-121c0-29-5-49-35-48" id="ar"/><g id="i"><use transform="matrix(0.06172839506172839,0,0,0.06172839506172839,0,0)" xlink:href="#ao"/><use transform="matrix(0.06172839506172839,0,0,0.06172839506172839,4.876543209876543,0)" xlink:href="#ap"/><use transform="matrix(0.06172839506172839,0,0,0.06172839506172839,17.22222222222222,0)" xlink:href="#aq"/><use transform="matrix(0.06172839506172839,0,0,0.06172839506172839,23.39506172839506,0)" xlink:href="#Y"/><use transform="matrix(0.06172839506172839,0,0,0.06172839506172839,35.74074074074074,0)" xlink:href="#ac"/><use transform="matrix(0.06172839506172839,0,0,0.06172839506172839,43.08641975308642,0)" xlink:href="#ar"/><use transform="matrix(0.06172839506172839,0,0,0.06172839506172839,61.5432098765432,0)" xlink:href="#an"/><use transform="matrix(0.06172839506172839,0,0,0.06172839506172839,73.88888888888889,0)" xlink:href="#af"/><use transform="matrix(0.06172839506172839,0,0,0.06172839506172839,80.06172839506172,0)" xlink:href="#ao"/><use transform="matrix(0.06172839506172839,0,0,0.06172839506172839,84.93827160493827,0)" xlink:href="#Y"/><use transform="matrix(0.06172839506172839,0,0,0.06172839506172839,97.28395061728395,0)" xlink:href="#ap"/></g><path d="M106-169C34-169 62-67 57 0H25v-261h32l-1 103c12-21 28-36 61-36 89 0 53 116 60 194h-32v-121c2-32-8-49-39-48" id="as"/><g id="j"><use transform="matrix(0.06172839506172839,0,0,0.06172839506172839,0,0)" xlink:href="#aq"/><use transform="matrix(0.06172839506172839,0,0,0.06172839506172839,6.172839506172839,0)" xlink:href="#ab"/><use transform="matrix(0.06172839506172839,0,0,0.06172839506172839,18.51851851851852,0)" xlink:href="#af"/><use transform="matrix(0.06172839506172839,0,0,0.06172839506172839,24.691358024691358,0)" xlink:href="#Z"/><use transform="matrix(0.06172839506172839,0,0,0.06172839506172839,35.80246913580247,0)" xlink:href="#as"/></g><path d="M177-190C167-65 218 103 67 71c-23-6-38-20-44-43l32-5c15 47 100 32 89-28v-30C133-14 115 1 83 1 29 1 15-40 15-95c0-56 16-97 71-98 29-1 48 16 59 35 1-10 0-23 2-32h30zM94-22c36 0 50-32 50-73 0-42-14-75-50-75-39 0-46 34-46 75s6 73 46 73" id="at"/><g id="k"><use transform="matrix(0.06172839506172839,0,0,0.06172839506172839,0,0)" xlink:href="#ao"/><use transform="matrix(0.06172839506172839,0,0,0.06172839506172839,4.876543209876543,0)" xlink:href="#ar"/><use transform="matrix(0.06172839506172839,0,0,0.06172839506172839,23.33333333333333,0)" xlink:href="#an"/><use transform="matrix(0.06172839506172839,0,0,0.06172839506172839,35.679012345679006,0)" xlink:href="#at"/><use transform="matrix(0.06172839506172839,0,0,0.06172839506172839,48.02469135802468,0)" xlink:href="#ab"/></g><g id="l"><use transform="matrix(0.06172839506172839,0,0,0.06172839506172839,0,0)" xlink:href="#aq"/><use transform="matrix(0.06172839506172839,0,0,0.06172839506172839,6.172839506172839,0)" xlink:href="#Y"/><use transform="matrix(0.06172839506172839,0,0,0.06172839506172839,18.51851851851852,0)" xlink:href="#ac"/></g><path d="M179-190L93 31C79 59 56 82 12 73V49c39 6 53-20 64-50L1-190h34L92-34l54-156h33" id="au"/><g id="m"><use transform="matrix(0.06172839506172839,0,0,0.06172839506172839,0,0)" xlink:href="#an"/><use transform="matrix(0.06172839506172839,0,0,0.06172839506172839,12.345679012345679,0)" xlink:href="#ap"/><use transform="matrix(0.06172839506172839,0,0,0.06172839506172839,24.691358024691358,0)" xlink:href="#an"/><use transform="matrix(0.06172839506172839,0,0,0.06172839506172839,37.03703703703704,0)" xlink:href="#am"/><use transform="matrix(0.06172839506172839,0,0,0.06172839506172839,41.91358024691358,0)" xlink:href="#au"/><use transform="matrix(0.06172839506172839,0,0,0.06172839506172839,53.0246913580247,0)" xlink:href="#ae"/><use transform="matrix(0.06172839506172839,0,0,0.06172839506172839,64.13580246913581,0)" xlink:href="#ao"/><use transform="matrix(0.06172839506172839,0,0,0.06172839506172839,69.01234567901236,0)" xlink:href="#ae"/></g><g id="n"><use transform="matrix(0.06172839506172839,0,0,0.06172839506172839,0,0)" xlink:href="#ak"/><use transform="matrix(0.06172839506172839,0,0,0.06172839506172839,12.345679012345679,0)" xlink:href="#al"/><use transform="matrix(0.06172839506172839,0,0,0.06172839506172839,24.691358024691358,0)" xlink:href="#ae"/><use transform="matrix(0.06172839506172839,0,0,0.06172839506172839,35.80246913580247,0)" xlink:href="#as"/></g><g id="o"><use transform="matrix(0.06172839506172839,0,0,0.06172839506172839,0,0)" xlink:href="#ac"/><use transform="matrix(0.06172839506172839,0,0,0.06172839506172839,7.345679012345679,0)" xlink:href="#ab"/><use transform="matrix(0.06172839506172839,0,0,0.06172839506172839,19.691358024691358,0)" xlink:href="#ae"/><use transform="matrix(0.06172839506172839,0,0,0.06172839506172839,30.80246913580247,0)" xlink:href="#al"/><use transform="matrix(0.06172839506172839,0,0,0.06172839506172839,43.148148148148145,0)" xlink:href="#am"/><use transform="matrix(0.06172839506172839,0,0,0.06172839506172839,48.02469135802469,0)" xlink:href="#af"/><use transform="matrix(0.06172839506172839,0,0,0.06172839506172839,54.19753086419753,0)" xlink:href="#ae"/></g><g id="p"><use transform="matrix(0.06172839506172839,0,0,0.06172839506172839,0,0)" xlink:href="#af"/><use transform="matrix(0.06172839506172839,0,0,0.06172839506172839,6.172839506172839,0)" xlink:href="#Y"/></g><use transform="matrix(0.06172839506172839,0,0,0.06172839506172839,0,0)" xlink:href="#an" id="q"/><g id="r"><use transform="matrix(0.06172839506172839,0,0,0.06172839506172839,0,0)" xlink:href="#ar"/><use transform="matrix(0.06172839506172839,0,0,0.06172839506172839,18.456790123456788,0)" xlink:href="#Y"/><use transform="matrix(0.06172839506172839,0,0,0.06172839506172839,30.80246913580247,0)" xlink:href="#ap"/><use transform="matrix(0.06172839506172839,0,0,0.06172839506172839,43.148148148148145,0)" xlink:href="#ao"/><use transform="matrix(0.06172839506172839,0,0,0.06172839506172839,48.02469135802469,0)" xlink:href="#af"/><use transform="matrix(0.06172839506172839,0,0,0.06172839506172839,54.19753086419753,0)" xlink:href="#Y"/><use transform="matrix(0.06172839506172839,0,0,0.06172839506172839,66.54320987654322,0)" xlink:href="#ac"/><use transform="matrix(0.06172839506172839,0,0,0.06172839506172839,73.8888888888889,0)" xlink:href="#ao"/><use transform="matrix(0.06172839506172839,0,0,0.06172839506172839,78.76543209876544,0)" xlink:href="#ap"/><use transform="matrix(0.06172839506172839,0,0,0.06172839506172839,91.11111111111113,0)" xlink:href="#at"/></g><g id="s"><use transform="matrix(0.06172839506172839,0,0,0.06172839506172839,0,0)" xlink:href="#af"/><use transform="matrix(0.06172839506172839,0,0,0.06172839506172839,6.172839506172839,0)" xlink:href="#Y"/><use transform="matrix(0.06172839506172839,0,0,0.06172839506172839,18.51851851851852,0)" xlink:href="#Y"/><use transform="matrix(0.06172839506172839,0,0,0.06172839506172839,30.864197530864196,0)" xlink:href="#am"/></g><g id="t"><use transform="matrix(0.06172839506172839,0,0,0.06172839506172839,0,0)" xlink:href="#al"/><use transform="matrix(0.06172839506172839,0,0,0.06172839506172839,12.345679012345679,0)" xlink:href="#ae"/><use transform="matrix(0.06172839506172839,0,0,0.06172839506172839,23.45679012345679,0)" xlink:href="#ab"/></g><g id="u"><use transform="matrix(0.06172839506172839,0,0,0.06172839506172839,0,0)" xlink:href="#ao"/><use transform="matrix(0.06172839506172839,0,0,0.06172839506172839,4.876543209876543,0)" xlink:href="#ap"/><use transform="matrix(0.06172839506172839,0,0,0.06172839506172839,17.22222222222222,0)" xlink:href="#aq"/><use transform="matrix(0.06172839506172839,0,0,0.06172839506172839,23.39506172839506,0)" xlink:href="#Y"/></g><g id="v"><use transform="matrix(0.06172839506172839,0,0,0.06172839506172839,0,0)" xlink:href="#af"/><use transform="matrix(0.06172839506172839,0,0,0.06172839506172839,6.172839506172839,0)" xlink:href="#Y"/></g><g id="w"><use transform="matrix(0.06172839506172839,0,0,0.06172839506172839,0,0)" xlink:href="#ae"/><use transform="matrix(0.06172839506172839,0,0,0.06172839506172839,11.11111111111111,0)" xlink:href="#Z"/><use transform="matrix(0.06172839506172839,0,0,0.06172839506172839,22.22222222222222,0)" xlink:href="#an"/><use transform="matrix(0.06172839506172839,0,0,0.06172839506172839,34.5679012345679,0)" xlink:href="#ap"/></g><g id="x"><use transform="matrix(0.06172839506172839,0,0,0.06172839506172839,0,0)" xlink:href="#Z"/><use transform="matrix(0.06172839506172839,0,0,0.06172839506172839,11.11111111111111,0)" xlink:href="#Y"/><use transform="matrix(0.06172839506172839,0,0,0.06172839506172839,23.45679012345679,0)" xlink:href="#ap"/><use transform="matrix(0.06172839506172839,0,0,0.06172839506172839,35.80246913580247,0)" xlink:href="#af"/><use transform="matrix(0.06172839506172839,0,0,0.06172839506172839,41.97530864197531,0)" xlink:href="#an"/><use transform="matrix(0.06172839506172839,0,0,0.06172839506172839,54.32098765432099,0)" xlink:href="#ao"/><use transform="matrix(0.06172839506172839,0,0,0.06172839506172839,59.19753086419753,0)" xlink:href="#ap"/><use transform="matrix(0.06172839506172839,0,0,0.06172839506172839,71.54320987654322,0)" xlink:href="#ab"/><use transform="matrix(0.06172839506172839,0,0,0.06172839506172839,83.8888888888889,0)" xlink:href="#ac"/></g><g id="y"><use transform="matrix(0.06172839506172839,0,0,0.06172839506172839,0,0)" xlink:href="#ao"/><use transform="matrix(0.06172839506172839,0,0,0.06172839506172839,4.876543209876543,0)" xlink:href="#ar"/><use transform="matrix(0.06172839506172839,0,0,0.06172839506172839,23.33333333333333,0)" xlink:href="#an"/><use transform="matrix(0.06172839506172839,0,0,0.06172839506172839,35.679012345679006,0)" xlink:href="#at"/><use transform="matrix(0.06172839506172839,0,0,0.06172839506172839,48.02469135802468,0)" xlink:href="#ab"/></g><g id="z"><use transform="matrix(0.06172839506172839,0,0,0.06172839506172839,0,0)" xlink:href="#ao"/><use transform="matrix(0.06172839506172839,0,0,0.06172839506172839,4.876543209876543,0)" xlink:href="#ar"/><use transform="matrix(0.06172839506172839,0,0,0.06172839506172839,23.33333333333333,0)" xlink:href="#an"/><use transform="matrix(0.06172839506172839,0,0,0.06172839506172839,35.679012345679006,0)" xlink:href="#at"/><use transform="matrix(0.06172839506172839,0,0,0.06172839506172839,48.02469135802468,0)" xlink:href="#ab"/></g><g id="A"><use transform="matrix(0.06172839506172839,0,0,0.06172839506172839,0,0)" xlink:href="#ac"/><use transform="matrix(0.06172839506172839,0,0,0.06172839506172839,7.345679012345679,0)" xlink:href="#al"/><use transform="matrix(0.06172839506172839,0,0,0.06172839506172839,19.691358024691358,0)" xlink:href="#ap"/></g><g id="B"><use transform="matrix(0.03703703703703704,0,0,0.03703703703703704,0,0)" xlink:href="#Q"/><use transform="matrix(0.03703703703703704,0,0,0.03703703703703704,8.88888888888889,0)" xlink:href="#R"/><use transform="matrix(0.03703703703703704,0,0,0.03703703703703704,12.592592592592593,0)" xlink:href="#S"/><use transform="matrix(0.03703703703703704,0,0,0.03703703703703704,22.185185185185187,0)" xlink:href="#R"/><use transform="matrix(0.03703703703703704,0,0,0.03703703703703704,25.888888888888893,0)" xlink:href="#T"/><use transform="matrix(0.03703703703703704,0,0,0.03703703703703704,34.00000000000001,0)" xlink:href="#U"/></g><path d="M199 0l-22-63H83L61 0H9l90-248h61L250 0h-51zm-33-102l-36-108c-10 38-24 72-36 108h72" id="av"/><path d="M67-125c0 54 23 88 75 88 28 0 53-7 68-21v-34h-60v-39h108v91C232-14 192 4 140 4 58 4 20-42 15-125 8-236 126-280 215-234c19 10 29 26 37 47l-47 15c-11-23-29-39-63-39-53 1-75 33-75 86" id="aw"/><path d="M175 0L67-191c6 58 2 128 3 191H24v-248h59L193-55c-6-58-2-129-3-193h46V0h-61" id="ax"/><g id="C"><use transform="matrix(0.03703703703703704,0,0,0.03703703703703704,0,0)" xlink:href="#av"/><use transform="matrix(0.03703703703703704,0,0,0.03703703703703704,9.592592592592593,0)" xlink:href="#aw"/><use transform="matrix(0.03703703703703704,0,0,0.03703703703703704,19.962962962962965,0)" xlink:href="#W"/><use transform="matrix(0.03703703703703704,0,0,0.03703703703703704,28.851851851851855,0)" xlink:href="#ax"/><use transform="matrix(0.03703703703703704,0,0,0.03703703703703704,38.44444444444445,0)" xlink:href="#T"/></g><g id="D"><use transform="matrix(0.06172839506172839,0,0,0.06172839506172839,0,0)" xlink:href="#ak"/><use transform="matrix(0.06172839506172839,0,0,0.06172839506172839,12.345679012345679,0)" xlink:href="#al"/><use transform="matrix(0.06172839506172839,0,0,0.06172839506172839,24.691358024691358,0)" xlink:href="#ae"/><use transform="matrix(0.06172839506172839,0,0,0.06172839506172839,35.80246913580247,0)" xlink:href="#as"/></g><g id="E"><use transform="matrix(0.06172839506172839,0,0,0.06172839506172839,0,0)" xlink:href="#ag"/><use transform="matrix(0.06172839506172839,0,0,0.06172839506172839,15.987654320987653,0)" xlink:href="#Y"/><use transform="matrix(0.06172839506172839,0,0,0.06172839506172839,28.333333333333332,0)" xlink:href="#ap"/><use transform="matrix(0.06172839506172839,0,0,0.06172839506172839,40.67901234567901,0)" xlink:href="#af"/><use transform="matrix(0.06172839506172839,0,0,0.06172839506172839,46.851851851851855,0)" xlink:href="#an"/><use transform="matrix(0.06172839506172839,0,0,0.06172839506172839,59.19753086419753,0)" xlink:href="#ao"/><use transform="matrix(0.06172839506172839,0,0,0.06172839506172839,64.07407407407408,0)" xlink:href="#ap"/><use transform="matrix(0.06172839506172839,0,0,0.06172839506172839,76.41975308641976,0)" xlink:href="#ab"/><use transform="matrix(0.06172839506172839,0,0,0.06172839506172839,88.76543209876544,0)" xlink:href="#ac"/></g><path d="M233-177c-1 41-23 64-60 70L243 0h-38l-65-103H63V0H30v-248c88 3 205-21 203 71zM63-129c60-2 137 13 137-47 0-61-80-42-137-45v92" id="ay"/><g id="F"><use transform="matrix(0.06172839506172839,0,0,0.06172839506172839,0,0)" xlink:href="#ay"/><use transform="matrix(0.06172839506172839,0,0,0.06172839506172839,15.987654320987653,0)" xlink:href="#ab"/><use transform="matrix(0.06172839506172839,0,0,0.06172839506172839,28.333333333333332,0)" xlink:href="#at"/><use transform="matrix(0.06172839506172839,0,0,0.06172839506172839,40.67901234567901,0)" xlink:href="#ao"/><use transform="matrix(0.06172839506172839,0,0,0.06172839506172839,45.55555555555556,0)" xlink:href="#ae"/><use transform="matrix(0.06172839506172839,0,0,0.06172839506172839,56.66666666666667,0)" xlink:href="#af"/><use transform="matrix(0.06172839506172839,0,0,0.06172839506172839,62.83950617283951,0)" xlink:href="#ac"/><use transform="matrix(0.06172839506172839,0,0,0.06172839506172839,70.18518518518519,0)" xlink:href="#au"/></g><path d="M115-194c53 0 69 39 70 98 0 66-23 100-70 100C84 3 66-7 56-30L54 0H23l1-261h32v101c10-23 28-34 59-34zm-8 174c40 0 45-34 45-75 0-40-5-75-45-74-42 0-51 32-51 76 0 43 10 73 51 73" id="az"/><g id="G"><use transform="matrix(0.06172839506172839,0,0,0.06172839506172839,0,0)" xlink:href="#ah"/><use transform="matrix(0.06172839506172839,0,0,0.06172839506172839,14.012345679012345,0)" xlink:href="#al"/><use transform="matrix(0.06172839506172839,0,0,0.06172839506172839,26.358024691358025,0)" xlink:href="#am"/><use transform="matrix(0.06172839506172839,0,0,0.06172839506172839,31.23456790123457,0)" xlink:href="#ap"/><use transform="matrix(0.06172839506172839,0,0,0.06172839506172839,43.58024691358025,0)" xlink:href="#ab"/><use transform="matrix(0.06172839506172839,0,0,0.06172839506172839,55.925925925925924,0)" xlink:href="#ac"/><use transform="matrix(0.06172839506172839,0,0,0.06172839506172839,63.2716049382716,0)" xlink:href="#an"/><use transform="matrix(0.06172839506172839,0,0,0.06172839506172839,75.61728395061728,0)" xlink:href="#az"/><use transform="matrix(0.06172839506172839,0,0,0.06172839506172839,87.96296296296296,0)" xlink:href="#ao"/><use transform="matrix(0.06172839506172839,0,0,0.06172839506172839,92.8395061728395,0)" xlink:href="#am"/><use transform="matrix(0.06172839506172839,0,0,0.06172839506172839,97.71604938271605,0)" xlink:href="#ao"/><use transform="matrix(0.06172839506172839,0,0,0.06172839506172839,102.5925925925926,0)" xlink:href="#af"/><use transform="matrix(0.06172839506172839,0,0,0.06172839506172839,108.76543209876543,0)" xlink:href="#au"/></g><path d="M185-189c-5-48-123-54-124 2 14 75 158 14 163 119 3 78-121 87-175 55-17-10-28-26-33-46l33-7c5 56 141 63 141-1 0-78-155-14-162-118-5-82 145-84 179-34 5 7 8 16 11 25" id="aA"/><g id="H"><use transform="matrix(0.06172839506172839,0,0,0.06172839506172839,0,0)" xlink:href="#aA"/><use transform="matrix(0.06172839506172839,0,0,0.06172839506172839,14.814814814814813,0)" xlink:href="#Z"/><use transform="matrix(0.06172839506172839,0,0,0.06172839506172839,25.925925925925924,0)" xlink:href="#an"/><use transform="matrix(0.06172839506172839,0,0,0.06172839506172839,38.2716049382716,0)" xlink:href="#ap"/><use transform="matrix(0.06172839506172839,0,0,0.06172839506172839,50.61728395061728,0)" xlink:href="#ap"/><use transform="matrix(0.06172839506172839,0,0,0.06172839506172839,62.962962962962955,0)" xlink:href="#ab"/><use transform="matrix(0.06172839506172839,0,0,0.06172839506172839,75.30864197530863,0)" xlink:href="#ac"/></g><path d="M240 0l2-218c-23 76-54 145-80 218h-23L58-218 59 0H30v-248h44l77 211c21-75 51-140 76-211h43V0h-30" id="aB"/><g id="I"><use transform="matrix(0.06172839506172839,0,0,0.06172839506172839,0,0)" xlink:href="#aB"/><use transform="matrix(0.06172839506172839,0,0,0.06172839506172839,18.456790123456788,0)" xlink:href="#Y"/><use transform="matrix(0.06172839506172839,0,0,0.06172839506172839,30.80246913580247,0)" xlink:href="#ap"/><use transform="matrix(0.06172839506172839,0,0,0.06172839506172839,43.148148148148145,0)" xlink:href="#ao"/><use transform="matrix(0.06172839506172839,0,0,0.06172839506172839,48.02469135802469,0)" xlink:href="#af"/><use transform="matrix(0.06172839506172839,0,0,0.06172839506172839,54.19753086419753,0)" xlink:href="#Y"/><use transform="matrix(0.06172839506172839,0,0,0.06172839506172839,66.54320987654322,0)" xlink:href="#ac"/></g><path d="M33 0v-248h34V0H33" id="aC"/><g id="J"><use transform="matrix(0.06790123456790124,0,0,0.06790123456790124,0,0)" xlink:href="#aC"/><use transform="matrix(0.06790123456790124,0,0,0.06790123456790124,6.790123456790124,0)" xlink:href="#ap"/><use transform="matrix(0.06790123456790124,0,0,0.06790123456790124,20.370370370370374,0)" xlink:href="#aq"/><use transform="matrix(0.06790123456790124,0,0,0.06790123456790124,27.160493827160497,0)" xlink:href="#Y"/><use transform="matrix(0.06790123456790124,0,0,0.06790123456790124,40.74074074074075,0)" xlink:href="#ac"/><use transform="matrix(0.06790123456790124,0,0,0.06790123456790124,48.820987654320994,0)" xlink:href="#ar"/><use transform="matrix(0.06790123456790124,0,0,0.06790123456790124,69.12345679012347,0)" xlink:href="#an"/><use transform="matrix(0.06790123456790124,0,0,0.06790123456790124,82.70370370370371,0)" xlink:href="#af"/><use transform="matrix(0.06790123456790124,0,0,0.06790123456790124,89.49382716049385,0)" xlink:href="#ao"/><use transform="matrix(0.06790123456790124,0,0,0.06790123456790124,94.85802469135805,0)" xlink:href="#Y"/><use transform="matrix(0.06790123456790124,0,0,0.06790123456790124,108.43827160493831,0)" xlink:href="#ap"/></g><path d="M143 4C61 4 22-44 18-125c-5-107 100-154 193-111 17 8 29 25 37 43l-32 9c-13-25-37-40-76-40-61 0-88 39-88 99 0 61 29 100 91 101 35 0 62-11 79-27v-45h-74v-28h105v86C228-13 192 4 143 4" id="aD"/><g id="K"><use transform="matrix(0.06790123456790124,0,0,0.06790123456790124,0,0)" xlink:href="#aD"/><use transform="matrix(0.06790123456790124,0,0,0.06790123456790124,19.01234567901235,0)" xlink:href="#an"/><use transform="matrix(0.06790123456790124,0,0,0.06790123456790124,32.592592592592595,0)" xlink:href="#af"/><use transform="matrix(0.06790123456790124,0,0,0.06790123456790124,39.38271604938272,0)" xlink:href="#as"/><use transform="matrix(0.06790123456790124,0,0,0.06790123456790124,52.96296296296297,0)" xlink:href="#ab"/><use transform="matrix(0.06790123456790124,0,0,0.06790123456790124,66.54320987654322,0)" xlink:href="#ac"/><use transform="matrix(0.06790123456790124,0,0,0.06790123456790124,74.62345679012347,0)" xlink:href="#ao"/><use transform="matrix(0.06790123456790124,0,0,0.06790123456790124,79.98765432098767,0)" xlink:href="#ap"/><use transform="matrix(0.06790123456790124,0,0,0.06790123456790124,93.56790123456793,0)" xlink:href="#at"/></g><g id="L"><use transform="matrix(0.06790123456790124,0,0,0.06790123456790124,0,0)" xlink:href="#ah"/><use transform="matrix(0.06790123456790124,0,0,0.06790123456790124,15.41358024691358,0)" xlink:href="#al"/><use transform="matrix(0.06790123456790124,0,0,0.06790123456790124,28.99382716049383,0)" xlink:href="#am"/><use transform="matrix(0.06790123456790124,0,0,0.06790123456790124,34.358024691358025,0)" xlink:href="#ap"/><use transform="matrix(0.06790123456790124,0,0,0.06790123456790124,47.93827160493827,0)" xlink:href="#ab"/><use transform="matrix(0.06790123456790124,0,0,0.06790123456790124,61.51851851851852,0)" xlink:href="#ac"/><use transform="matrix(0.06790123456790124,0,0,0.06790123456790124,69.59876543209877,0)" xlink:href="#an"/><use transform="matrix(0.06790123456790124,0,0,0.06790123456790124,83.17901234567903,0)" xlink:href="#az"/><use transform="matrix(0.06790123456790124,0,0,0.06790123456790124,96.75925925925927,0)" xlink:href="#ao"/><use transform="matrix(0.06790123456790124,0,0,0.06790123456790124,102.12345679012348,0)" xlink:href="#am"/><use transform="matrix(0.06790123456790124,0,0,0.06790123456790124,107.48765432098769,0)" xlink:href="#ao"/><use transform="matrix(0.06790123456790124,0,0,0.06790123456790124,112.85185185185189,0)" xlink:href="#af"/><use transform="matrix(0.06790123456790124,0,0,0.06790123456790124,119.64197530864202,0)" xlink:href="#au"/></g><g id="M"><use transform="matrix(0.06790123456790124,0,0,0.06790123456790124,0,0)" xlink:href="#aA"/><use transform="matrix(0.06790123456790124,0,0,0.06790123456790124,16.296296296296298,0)" xlink:href="#Z"/><use transform="matrix(0.06790123456790124,0,0,0.06790123456790124,28.51851851851852,0)" xlink:href="#an"/><use transform="matrix(0.06790123456790124,0,0,0.06790123456790124,42.098765432098766,0)" xlink:href="#ap"/></g><path d="M85-194c31 0 48 13 60 33l-1-100h32l1 261h-30c-2-10 0-23-3-31C134-8 116 4 85 4 32 4 16-35 15-94c0-66 23-100 70-100zm9 24c-40 0-46 34-46 75 0 40 6 74 45 74 42 0 51-32 51-76 0-42-9-74-50-73" id="aE"/><g id="N"><use transform="matrix(0.06790123456790124,0,0,0.06790123456790124,0,0)" xlink:href="#ad"/><use transform="matrix(0.06790123456790124,0,0,0.06790123456790124,17.58641975308642,0)" xlink:href="#an"/><use transform="matrix(0.06790123456790124,0,0,0.06790123456790124,31.16666666666667,0)" xlink:href="#ap"/><use transform="matrix(0.06790123456790124,0,0,0.06790123456790124,44.74691358024692,0)" xlink:href="#aE"/><use transform="matrix(0.06790123456790124,0,0,0.06790123456790124,58.32716049382716,0)" xlink:href="#am"/><use transform="matrix(0.06790123456790124,0,0,0.06790123456790124,63.69135802469136,0)" xlink:href="#ab"/></g><g id="O"><use transform="matrix(0.06790123456790124,0,0,0.06790123456790124,0,0)" xlink:href="#ay"/><use transform="matrix(0.06790123456790124,0,0,0.06790123456790124,17.58641975308642,0)" xlink:href="#ab"/><use transform="matrix(0.06790123456790124,0,0,0.06790123456790124,31.16666666666667,0)" xlink:href="#ae"/><use transform="matrix(0.06790123456790124,0,0,0.06790123456790124,43.38888888888889,0)" xlink:href="#al"/><use transform="matrix(0.06790123456790124,0,0,0.06790123456790124,56.96913580246914,0)" xlink:href="#am"/><use transform="matrix(0.06790123456790124,0,0,0.06790123456790124,62.333333333333336,0)" xlink:href="#af"/><use transform="matrix(0.06790123456790124,0,0,0.06790123456790124,69.12345679012346,0)" xlink:href="#ae"/></g><path d="M16-82v-28h88v28H16" id="aF"/><g id="P"><use transform="matrix(0.06172839506172839,0,0,0.06172839506172839,0,0)" xlink:href="#X"/><use transform="matrix(0.06172839506172839,0,0,0.06172839506172839,15.987654320987653,0)" xlink:href="#an"/><use transform="matrix(0.06172839506172839,0,0,0.06172839506172839,28.333333333333332,0)" xlink:href="#af"/><use transform="matrix(0.06172839506172839,0,0,0.06172839506172839,34.50617283950617,0)" xlink:href="#an"/><use transform="matrix(0.06172839506172839,0,0,0.06172839506172839,46.85185185185185,0)" xlink:href="#aF"/><use transform="matrix(0.06172839506172839,0,0,0.06172839506172839,54.197530864197525,0)" xlink:href="#aA"/><use transform="matrix(0.06172839506172839,0,0,0.06172839506172839,69.01234567901234,0)" xlink:href="#af"/><use transform="matrix(0.06172839506172839,0,0,0.06172839506172839,75.18518518518518,0)" xlink:href="#Y"/><use transform="matrix(0.06172839506172839,0,0,0.06172839506172839,87.53086419753086,0)" xlink:href="#ac"/><use transform="matrix(0.06172839506172839,0,0,0.06172839506172839,94.87654320987654,0)" xlink:href="#ab"/></g></defs></g></svg>
