<svg xmlns="http://www.w3.org/2000/svg" xmlns:xlink="http://www.w3.org/1999/xlink" xmlns:lucid="lucid" width="720" height="573.56"><g transform="translate(-480 -626.4392324093817)" lucid:page-tab-id="1A9oqCsbHWSJ"><path d="M0 0h1323.2v1870.4H0z" fill="#fff"/><path d="M632 847.03c0-8.3 6.73-15 15-15h104.85c8.3 0 15 6.7 15 15v57c0 8.27-6.7 15-15 15H647c-8.27 0-15-6.73-15-15z" stroke="#000" stroke-width="2" fill="#fff"/><use xlink:href="#a" transform="matrix(1,0,0,1,637.0127931769723,837.0255863539446) translate(3.691358024691347 70.77777777777777)"/><use xlink:href="#b" transform="matrix(1,0,0,1,637.0127931769723,837.0255863539446) translate(57.74691358024691 70.77777777777777)"/><path d="M663.2 667.24c0-8.3 6.7-15 15-15h85.98c8.28 0 15 6.7 15 15v57c0 8.28-6.72 15-15 15h-86c-8.28 0-15-6.72-15-15z" stroke="#000" stroke-width="2" fill="#e2e9ef"/><use xlink:href="#c" transform="matrix(1,0,0,1,668.1855010660981,657.2388059701492) translate(10.287037037037038 41.611111111111114)"/><use xlink:href="#d" transform="matrix(1,0,0,1,668.1855010660981,657.2388059701492) translate(63.78086419753087 41.611111111111114)"/><path d="M670.43 673.04c0-8.3 6.72-15 15-15h86c8.28 0 15 6.7 15 15v57c0 8.28-6.72 15-15 15h-86c-8.28 0-15-6.72-15-15z" stroke="#000" stroke-width="2" fill="#c9dfef"/><use xlink:href="#c" transform="matrix(1,0,0,1,675.4349680170576,663.0383795309168) translate(10.287037037037038 41.611111111111114)"/><use xlink:href="#d" transform="matrix(1,0,0,1,675.4349680170576,663.0383795309168) translate(63.78086419753087 41.611111111111114)"/><path d="M902.27 965.92c0-8.3 6.72-15 15-15h86c8.28 0 15 6.7 15 15v57c0 8.27-6.72 15-15 15h-86c-8.28 0-15-6.73-15-15z" stroke="#000" stroke-width="2" fill="#3db39e" fill-opacity=".3"/><use xlink:href="#e" transform="matrix(1,0,0,1,907.2729211087419,955.9168443496802) translate(24.092592592592588 41.611111111111114)"/><use xlink:href="#f" transform="matrix(1,0,0,1,907.2729211087419,955.9168443496802) translate(60.34567901234568 41.611111111111114)"/><path d="M960.27 920.02v11.66" stroke="#000" stroke-width="2" fill="none"/><path d="M961.27 920.02h-2v-1h2zM960.27 946.68l-4.64-14.27h9.27z"/><path d="M960.27 949.92l-6-18.5h12zm-3.26-16.5l3.27 10.02 3.26-10.03zM688.27 789.34l3.1.4 2.95 1.22 2.54 1.96 1.95 2.54 1.23 2.93.4 3.1v11.3h-2v-11.17l-.35-2.72-1.02-2.43-1.63-2.13-2.12-1.63-2.44-1-2.72-.36h-21.06v-2zm-128.8-10.37l1.4 3.36 2.23 2.9 2.9 2.24 3.36 1.4 3.7.47h17.28v2h-17.4l-4.1-.53-3.84-1.6-3.32-2.54-2.56-3.33-1.6-3.84-.52-4.1v-25.74h2v25.62zM559 749.66h-2v-1h2zM699.43 827.8l-4.63-14.28h9.27z"/><path d="M699.43 831.03l-6-18.5h12zm-3.26-16.5l3.26 10.02 3.26-10.03z"/><use xlink:href="#g" transform="matrix(1,0,0,1,590.3439153439155,771.674484513504) translate(0 12.444444444444446)"/><use xlink:href="#h" transform="matrix(1,0,0,1,590.3439153439155,771.674484513504) translate(28.4320987654321 12.444444444444446)"/><use xlink:href="#i" transform="matrix(1,0,0,1,590.3439153439155,771.674484513504) translate(0 31.111111111111118)"/><path d="M961.27 831.03h-2v-14.2h2zm.07-59.5l-.03 7.96h-2l.04-8zM961.27 832.03h-2v-1h2zM964.98 770.78h-9.27l4.64-14.26z"/><path d="M966.35 771.78h-12.02l6-18.5zm-9.27-2h6.52l-3.26-10.03z"/><use xlink:href="#j" transform="matrix(1,0,0,1,920.1266814077758,779.485412067185) translate(0 12.444444444444446)"/><use xlink:href="#k" transform="matrix(1,0,0,1,920.1266814077758,779.485412067185) translate(38.0246913580247 12.444444444444446)"/><use xlink:href="#l" transform="matrix(1,0,0,1,920.1266814077758,779.485412067185) translate(0 31.111111111111118)"/><use xlink:href="#m" transform="matrix(1,0,0,1,920.1266814077758,779.485412067185) translate(22.425925925925927 31.111111111111118)"/><path d="M700.43 1059.27h-2v-41.84h2zm0-79.17h-2v-60.08h2zM700.43 920.02h-2v-1h2zM699.43 1074.27L694.8 1060h9.27z"/><path d="M699.43 1077.5l-6-18.5h12zm-3.26-16.5l3.26 10.03 3.26-10.02z"/><use xlink:href="#n" transform="matrix(1,0,0,1,642.4391103189888,980.0966593535892) translate(0 12.444444444444446)"/><use xlink:href="#o" transform="matrix(1,0,0,1,642.4391103189888,980.0966593535892) translate(38.0246913580247 12.444444444444446)"/><use xlink:href="#p" transform="matrix(1,0,0,1,642.4391103189888,980.0966593535892) translate(88.06172839506175 12.444444444444446)"/><use xlink:href="#q" transform="matrix(1,0,0,1,642.4391103189888,980.0966593535892) translate(105.3456790123457 12.444444444444446)"/><use xlink:href="#r" transform="matrix(1,0,0,1,642.4391103189888,980.0966593535892) translate(0 31.111111111111118)"/><use xlink:href="#s" transform="matrix(1,0,0,1,642.4391103189888,980.0966593535892) translate(76.74074074074075 31.111111111111118)"/><path d="M802.63 876.52H786.1v-2h16.53zm80.4 0H866.5v-2h16.54zM785.35 880.16l-14.26-4.64 14.25-4.63z"/><path d="M786.35 881.53l-18.5-6 18.5-6.02zm-12.03-6l10.03 3.25v-6.52zM898.04 875.52l-14.27 4.64v-9.27z"/><path d="M901.27 875.52l-18.5 6v-12zm-16.5 3.26l10.03-3.26-10.03-3.26z"/><use xlink:href="#t" transform="matrix(1,0,0,1,802.630800877425,838.1890547263682) translate(0 12.444444444444446)"/><use xlink:href="#u" transform="matrix(1,0,0,1,802.630800877425,838.1890547263682) translate(29.382716049382715 12.444444444444446)"/><use xlink:href="#v" transform="matrix(1,0,0,1,802.630800877425,838.1890547263682) translate(0 31.111111111111118)"/><use xlink:href="#w" transform="matrix(1,0,0,1,802.630800877425,838.1890547263682) translate(17.283950617283953 31.111111111111118)"/><use xlink:href="#x" transform="matrix(1,0,0,1,802.630800877425,838.1890547263682) translate(0 49.777777777777786)"/><use xlink:href="#y" transform="matrix(1,0,0,1,802.630800877425,838.1890547263682) translate(0 68.44444444444446)"/><path d="M807.06 709.78h-12.38v-2h12.38zm76.05 0h-5.35v-2h5.36zM794.68 709.78h-1v-2h1zM898.1 708.78l-14.26 4.64v-9.27z"/><path d="M901.34 708.78l-18.5 6.02v-12.03zm-16.5 3.26l10.03-3.26-10.03-3.25z"/><use xlink:href="#g" transform="matrix(1,0,0,1,807.0632340821172,690.1179815209666) translate(0 12.444444444444446)"/><use xlink:href="#z" transform="matrix(1,0,0,1,807.0632340821172,690.1179815209666) translate(28.4320987654321 12.444444444444446)"/><use xlink:href="#v" transform="matrix(1,0,0,1,807.0632340821172,690.1179815209666) translate(0 31.111111111111118)"/><use xlink:href="#A" transform="matrix(1,0,0,1,807.0632340821172,690.1179815209666) translate(17.283950617283953 31.111111111111118)"/><path d="M677.68 680.3c0-8.3 6.72-15 15-15h86c8.28 0 15 6.7 15 15v56.98c0 8.3-6.72 15-15 15h-86c-8.28 0-15-6.7-15-15z" stroke="#000" stroke-width="2" fill="#b2d6ef"/><use xlink:href="#c" transform="matrix(1,0,0,1,682.6844349680171,670.2878464818763) translate(10.287037037037038 41.611111111111114)"/><use xlink:href="#d" transform="matrix(1,0,0,1,682.6844349680171,670.2878464818763) translate(63.78086419753087 41.611111111111114)"/><path d="M735.68 724.9c0-2.76 2.24-5 5-5h38.5c2.76 0 5 2.24 5 5v18.22c0 2.76-2.24 5-5 5h-38.5c-2.76 0-5-2.24-5-5z" stroke="#000" stroke-width="2" fill="#fff"/><use xlink:href="#B" transform="matrix(1,0,0,1,740.680170575693,724.9004975124378) translate(5.203703703703701 7.111111111111112)"/><use xlink:href="#C" transform="matrix(1,0,0,1,740.680170575693,724.9004975124378) translate(3.981481481481479 17.77777777777778)"/><path d="M646.17 704.73l2.92 1.85 1.98 2.85.7 3.4v6.7l.47 3.54 1.34 3.2 2.13 2.8 2.8 2.14 3.2 1.35 3.55.46h28.38v2h-28.5l-3.95-.5-3.7-1.54-3.2-2.46-2.46-3.2-1.54-3.7-.5-3.95v-6.6l-.6-2.8-1.52-2.2-2.25-1.43-2.5-.46h-7.7v-2h7.87zm88.5 28.28v2h-7.3v-2zM735.68 735h-1v-2h1zM634.5 709.8l-14.27-4.64 14.26-4.64z"/><path d="M635.5 711.17l-18.5-6 18.5-6.02zm-12.04-6l10.03 3.25v-6.52z"/><use xlink:href="#D" transform="matrix(1,0,0,1,693.6567519187205,724.6785510674707) translate(0 12.444444444444446)"/><path d="M757.36 668.2v28.2h34.07v-28.2z" fill-opacity="0"/><path d="M770.92 670.9v3.45h-6.9v3.45h-3.44v3.53h-2.94l-.06.5c-.16 1.76.08 3.5.8 5.1l.3.62.05.05c2.12 3.6 5.86 5.14 9.93 5.14 7.88 0 14.37-3.52 17.36-10.95h.43c1.85 0 3.67-.64 4.58-2.4l.25-.5-.48-.26c-.7-.4-1.55-.6-2.4-.6-.55 0-1.1.07-1.6.22-.16-1.4-1.07-2.6-2.16-3.48l-.43-.35-.35.42c-.73.84-.95 2.24-.85 3.32.07.8.32 1.6.8 2.23-.36.22-.78.4-1.16.52-.76.26-1.6.4-2.4.4h-1.73v-3.52h-3.44v-6.9z"/><path d="M761.16 678.38v2.98h2.98v-2.98zM764.6 674.93v3h3v-3zM764.6 678.38v2.98h3v-2.98zM768.05 678.38v2.98h3v-2.98zM768.05 674.93v3h3v-3zM771.5 678.38v2.98h2.98v-2.98zM771.5 674.93v3h2.98v-3zM771.5 671.48v3h2.98v-3zM774.94 678.38v2.98h3v-2.98zM767.4 686.2c-.45 0-.82.38-.82.83 0 .46.37.83.82.83.46 0 .83-.37.83-.83 0-.45-.37-.82-.83-.82z" fill="#fff"/><path d="M767.4 686.44c-.32 0-.6.26-.6.6 0 .32.28.58.6.58.33 0 .6-.26.6-.6 0-.07-.02-.15-.05-.22-.04.08-.12.13-.2.13-.14 0-.25-.1-.25-.24 0-.1.05-.18.12-.22-.07-.02-.14-.04-.22-.04z"/><path d="M765.8 688.42c-.75.22-1.66.36-2.72.42-.4.02-.82.03-1.26.03-.5 0-1.04 0-1.6-.04 1.87 1.87 4.18 3.3 8.44 3.33h.93c-2.05-.98-3.17-2.3-3.8-3.74z" fill="#fff"/><path d="M699.87 840.93c-13.37 0-24.3 10.38-24.9 23.42v2.34c.58 12.32 10.37 22.28 22.75 23.32h4.3c12.43-1.04 22.25-11.08 22.76-23.48l.03-1.02c0-13.58-11.16-24.6-24.93-24.6z" fill="#00a0e1"/><path d="M690.7 854.66l-2.67 2.34-9.03 11.14 22.1 21.88h.92c12.43-1.04 22.25-11.08 22.76-23.48l-4.42-4.43-3.88 4.77-7.86-7.83-1.2 2.05-3.24-3.18-7.26 2.9z" fill="#303030" fill-opacity=".3"/><path d="M716.18 858.6c3.88 2.8 6.13 5.6 6.23 5.72l.8 1-.8 1c-.1.12-2.35 2.92-6.23 5.72-2.3 1.67-4.7 2.98-7.1 3.94 3.05-2.57 5-6.4 5-10.66 0-4.27-1.95-8.1-5-10.66 2.42.95 4.8 2.27 7.1 3.93zm-7.12-3.94M690.7 854.66c-2.44.95-4.83 2.27-7.13 3.93-3.88 2.8-6.14 5.6-6.24 5.72l-.8 1 .8 1c.1.12 2.36 2.92 6.24 5.72 2.3 1.67 4.7 2.98 7.12 3.94-3.07-2.57-5-6.4-5-10.66 0-4.27 1.93-8.1 5-10.66zm0 0" fill="#fff"/><path d="M699.87 855.68c-.12 0-.25.04-.36.12-1 .74-4.14 2.75-7.98 3.1-.46.04-.8.43-.82.88-.03 1.97.17 7.07 2.77 10.94l10.7-12.8c-1.88-.73-3.3-1.67-3.94-2.12-.1-.08-.23-.12-.36-.12zM707.53 858.83L695.6 873.1c1.1.88 2.42 1.6 4.04 2.03.08.02.15.03.23.03.08 0 .16 0 .23-.03 8.5-2.25 9-12.37 8.95-15.35 0-.45-.36-.84-.83-.88l-.7-.07z" fill="#fff"/><path d="M902.35 680.3c0-8.3 6.7-15 15-15h86c8.27 0 15 6.7 15 15v56.98c0 8.3-6.73 15-15 15h-86c-8.3 0-15-6.7-15-15z" stroke="#000" stroke-width="2" fill="#b2d6ef"/><use xlink:href="#E" transform="matrix(1,0,0,1,907.3454157782515,670.2878464818764) translate(19.361111111111107 32.27777777777777)"/><use xlink:href="#F" transform="matrix(1,0,0,1,907.3454157782515,670.2878464818764) translate(24.546296296296294 50.94444444444444)"/><path d="M988.3 668.2v22.46h27.14V668.2z" fill-opacity="0"/><path d="M999.1 670.35v2.75h-5.48v2.74h-2.74v2.8h-2.35l-.04.42c-.14 1.4.05 2.78.62 4.04l.25.5.03.05c1.7 2.87 4.66 4.1 7.9 4.1 6.28 0 11.45-2.82 13.83-8.73h.35c1.47 0 2.92-.5 3.64-1.9l.2-.4-.38-.2c-.56-.34-1.24-.5-1.92-.5-.43 0-.86.07-1.26.2-.13-1.12-.86-2.1-1.73-2.78l-.34-.28-.3.33c-.58.66-.75 1.78-.67 2.63.05.63.25 1.27.64 1.78-.3.2-.63.33-.93.43-.6.2-1.26.32-1.9.32h-1.4v-2.8h-2.74v-5.5z"/><path d="M991.33 676.3v2.38h2.38v-2.38zM994.08 673.55v2.38h2.38v-2.38zM994.08 676.3v2.38h2.38v-2.38zM996.82 676.3v2.38h2.38v-2.38zM996.82 673.55v2.38h2.38v-2.38zM999.57 676.3v2.38h2.37v-2.38zM999.57 673.55v2.38h2.37v-2.38zM999.57 670.8v2.4h2.37v-2.4zM1002.3 676.3v2.38h2.4v-2.38zM996.3 682.54c-.36 0-.65.3-.65.65 0 .35.3.65.66.65.37 0 .66-.3.66-.66 0-.37-.3-.66-.65-.66z" fill="#fff"/><path d="M996.3 682.72c-.25 0-.46.2-.46.47 0 .25.2.46.47.46.27 0 .48-.2.48-.47 0-.07-.02-.13-.04-.2-.03.07-.1.1-.17.1-.1 0-.2-.08-.2-.18 0-.07.05-.13.1-.17-.04-.02-.1-.03-.16-.03z"/><path d="M995.04 684.3c-.6.17-1.33.28-2.17.33-.32.02-.66.03-1 .03-.4 0-.84 0-1.3-.04 1.5 1.5 3.34 2.64 6.74 2.66h.75c-1.62-.8-2.52-1.84-3-2.98z" fill="#fff"/><path d="M902.27 847.03c0-8.3 6.72-15 15-15h86c8.28 0 15 6.7 15 15v57c0 8.27-6.72 15-15 15h-86c-8.28 0-15-6.73-15-15z" stroke="#000" stroke-width="2" fill="#3db39e" fill-opacity=".31"/><use xlink:href="#G" transform="matrix(1,0,0,1,907.2729211087419,837.0255863539446) translate(11.043209876543202 52.1111111111111)"/><use xlink:href="#H" transform="matrix(1,0,0,1,907.2729211087419,837.0255863539446) translate(24.070987654320987 70.77777777777777)"/><path d="M961.97 842.17l-14.3 5.5v10.12c0 7 2.02 16.13 14.27 19.54h.06c12.23-3.4 14.24-12.72 14.24-19.55.02-3.48.02-10.13.02-10.13.03 0-13.93-5.36-14.3-5.5z" fill="#3db39e" fill-opacity=".31"/><path d="M961.97 842.17l-14.3 5.5v10.12c0 7 2.02 16.13 14.27 19.54h.03z" fill="#e7e7e7"/><path d="M950.4 849.35zm0 0zm11.54-4.43c-.24.08-11.5 4.43-11.54 4.43v8.5c0 5.87 1.16 13.9 11.54 16.75 10.36-2.86 11.55-11.02 11.55-16.76.02-2.9.02-8.27 0-8.27.02 0-11.25-4.54-11.56-4.65z" fill="#3db39e"/><path d="M950.43 849.35zm0 0zm11.54-4.43c-.24.08-11.5 4.43-11.54 4.43v8.5c0 5.87 1.15 13.9 11.54 16.75z" fill="#3aaa96"/><path d="M961.97 853.17c-.3 0-.58.16-.7.44l-1.25 2.54-2.86.4c-.3.06-.54.25-.63.53-.08.27-.03.57.2.77l2.08 2.06-.48 2.86c-.06.27.08.57.33.74.14.08.3.14.46.14.15 0 .3-.03.4-.08l2.5-1.32 2.5 1.32c.1.05.25.08.38.08.17 0 .33-.06.47-.14.25-.17.4-.47.33-.74l-.5-2.86 2.1-2.06c.16-.22.24-.5.13-.77-.07-.28-.32-.47-.62-.52l-2.86-.4-1.23-2.54c-.15-.27-.42-.43-.73-.43z" fill="#f9f9f9"/><path d="M641.36 1093.5c0-8.28 6.72-15 15-15h86c8.28 0 15 6.72 15 15v57c0 8.3-6.72 15-15 15h-86c-8.28 0-15-6.7-15-15z" stroke="#000" stroke-width="2" fill="#ffe8c8"/><use xlink:href="#I" transform="matrix(1,0,0,1,646.36460554371,1083.5074626865671) translate(27.138888888888886 70.77777777777777)"/><path d="M675.32 1087.93c-1.9 0-3.45 1.55-3.45 3.45v30.1h57.2v-30.12c0-1.9-1.54-3.43-3.44-3.43z" fill="#333"/><path d="M712.3 1141.2h-23.66c0-2.18 1.76-3.94 3.94-3.94h15.78c2.18 0 3.95 1.76 3.95 3.94z" fill="#e8edee"/><path d="M695.54 1129.37l-1.97 7.9h13.8l-1.96-7.9z" fill="#b0b6bb"/><path d="M671.87 1121.47v4.44c0 1.92 1.54 3.47 3.45 3.47h50.3c1.92 0 3.46-1.55 3.46-3.46v-4.43z" fill="#e8edee"/><path d="M682.72 1101.74v15.8h5.92v-15.8z" fill="#25ae88"/><path d="M688.64 1095.82v21.7h5.92v-21.7z" fill="#dd691d"/><path d="M694.56 1104.7v12.83h5.9v-12.83z" fill="#d38479"/><path d="M700.47 1098.78v18.75h5.92v-18.75z" fill="#ecba16"/><path d="M706.4 1091.88v25.65h5.9v-25.65z" fill="#dd691d"/><path d="M712.3 1095.82v21.7h5.93v-21.7z" fill="#25ae88"/><path d="M678.77 1116.54c-.54 0-1 .45-1 1 0 .53.46.97 1 .97h43.4c.55 0 1-.43 1-.97s-.45-1-1-1z" fill="#e8edee"/><path d="M1049.5 646.44H933.53v121.8h116z" fill-opacity="0"/><path d="M1037.9 646.44h11.6v121.8h-11.6" stroke="#000" stroke-width="2" fill="none"/><path d="M1049.5 816.8H933.53v232.7h116z" fill-opacity="0"/><path d="M1037.9 816.8h11.6v232.7h-11.6" stroke="#000" stroke-width="2" fill="none"/><path d="M1049.5 1064H933.53v116h116z" fill-opacity="0"/><path d="M1037.9 1064h11.6v116h-11.6" stroke="#000" stroke-width="2" fill="none"/><path d="M1064 682.44h116v49.78h-116z" stroke="#000" stroke-opacity="0" stroke-width="2" fill="#fff" fill-opacity="0"/><g><use xlink:href="#J" transform="matrix(1,0,0,1,1069.0085287846482,687.4449182658138) translate(0 13.777777777777775)"/><use xlink:href="#K" transform="matrix(1,0,0,1,1069.0085287846482,687.4449182658138) translate(0 32.44444444444444)"/></g><path d="M1064 901.14h116v49.78h-116z" stroke="#000" stroke-opacity="0" stroke-width="2" fill="#fff" fill-opacity="0"/><g><use xlink:href="#G" transform="matrix(1,0,0,1,1069.0085287846482,906.1371712864251) translate(0 13.777777777777775)"/><use xlink:href="#L" transform="matrix(1,0,0,1,1069.0085287846482,906.1371712864251) translate(0 32.44444444444444)"/></g><path d="M1064 1099.05h116v49.78h-116z" stroke="#000" stroke-opacity="0" stroke-width="2" fill="#fff" fill-opacity="0"/><g><use xlink:href="#M" transform="matrix(1,0,0,1,1069.0085287846482,1104.0476190476188) translate(0 23.11111111111111)"/><use xlink:href="#N" transform="matrix(1,0,0,1,1069.0085287846482,1104.0476190476188) translate(53.49382716049383 23.11111111111111)"/></g><path d="M500 676.66c0-8.28 6.72-15 15-15h86c8.28 0 15 6.72 15 15v57c0 8.28-6.72 15-15 15h-86c-8.28 0-15-6.72-15-15z" stroke="#000" stroke-width="2" fill="#bdd9ef"/><g><use xlink:href="#O" transform="matrix(1,0,0,1,505,666.6631130063967) translate(15.472222222222221 70.77777777777777)"/></g><path d="M558 677.8c-11 0-20 2.68-20.63 6.06h-.04V711.95h.04c.63 3.38 9.63 6.07 20.63 6.07 11 0 20-2.7 20.62-6.07h.04V683.84h-.04C578 680.5 569 677.8 558 677.8z" fill="#424a60"/><path d="M537.33 702.46v9.5h.04c.63 3.38 9.63 6.07 20.63 6.07 11 0 20-2.7 20.62-6.07h.04v-9.5c0 3.57-9.26 6.46-20.66 6.46s-20.67-2.9-20.67-6.46zM537.33 702.1v.36c0-.12.02-.25.04-.37zM578.62 702.1c.02.1.04.24.04.36v-.37z" fill="#424a60"/><path d="M537.33 693.36v9.48h.04c.63 3.4 9.63 6.08 20.63 6.08 11 0 20-2.7 20.62-6.08h.04v-9.48c0 3.56-9.26 6.45-20.66 6.45s-20.67-2.88-20.67-6.44zM537.33 692.98v.38c0-.13.02-.26.04-.38zM578.62 692.98c.02.12.04.25.04.38v-.38z" fill="#556080"/><path d="M558 677.8c-11.4 0-20.67 2.88-20.67 6.45 0 3.56 9.26 6.45 20.67 6.45 11.4 0 20.66-2.9 20.66-6.45 0-3.57-9.26-6.46-20.66-6.46z" fill="#7fabda"/><path d="M537.33 684.25v9.48h.04c.63 3.4 9.63 6.08 20.63 6.08 11 0 20-2.68 20.62-6.07h.04v-9.48c0 3.56-9.26 6.45-20.66 6.45s-20.67-2.9-20.67-6.45z" fill="#7383bf"/><path d="M537.33 683.86v.4c0-.14.02-.27.04-.4zM578.62 683.86c.02.13.04.26.04.4v-.4z" fill="#7383bf"/><defs><path d="M147 0H94L2-248h55l64 206c17-72 42-137 63-206h54" id="P"/><path d="M24 0v-248h52V0H24" id="Q"/><path d="M240-174c0 40-23 61-54 70L253 0h-59l-57-94H76V0H24v-248c93 4 217-23 216 74zM76-134c48-2 112 12 112-38 0-48-66-32-112-35v73" id="R"/><path d="M136-208V0H84v-208H4v-40h212v40h-80" id="S"/><path d="M146-102V0H94v-102L6-248h54l60 105 60-105h54" id="T"/><g id="a"><use transform="matrix(0.04320987654320988,0,0,0.04320987654320988,0,0)" xlink:href="#P"/><use transform="matrix(0.04320987654320988,0,0,0.04320987654320988,10.370370370370372,0)" xlink:href="#Q"/><use transform="matrix(0.04320987654320988,0,0,0.04320987654320988,14.691358024691363,0)" xlink:href="#R"/><use transform="matrix(0.04320987654320988,0,0,0.04320987654320988,25.882716049382722,0)" xlink:href="#Q"/><use transform="matrix(0.04320987654320988,0,0,0.04320987654320988,30.203703703703713,0)" xlink:href="#S"/><use transform="matrix(0.04320987654320988,0,0,0.04320987654320988,39.66666666666667,0)" xlink:href="#T"/></g><path d="M169-182c-1-43-94-46-97-3 18 66 151 10 154 114 3 95-165 93-204 36-6-8-10-19-12-30l50-8c3 46 112 56 116 5-17-69-150-10-154-114-4-87 153-88 188-35 5 8 8 18 10 28" id="U"/><path d="M24 0v-248h195v40H76v63h132v40H76v65h150V0H24" id="V"/><g id="b"><use transform="matrix(0.04320987654320988,0,0,0.04320987654320988,0,0)" xlink:href="#U"/><use transform="matrix(0.04320987654320988,0,0,0.04320987654320988,10.370370370370372,0)" xlink:href="#V"/><use transform="matrix(0.04320987654320988,0,0,0.04320987654320988,20.740740740740744,0)" xlink:href="#R"/><use transform="matrix(0.04320987654320988,0,0,0.04320987654320988,31.629629629629633,0)" xlink:href="#P"/><use transform="matrix(0.04320987654320988,0,0,0.04320987654320988,42.00000000000001,0)" xlink:href="#V"/><use transform="matrix(0.04320987654320988,0,0,0.04320987654320988,52.37037037037039,0)" xlink:href="#R"/></g><path d="M30-248c118-7 216 8 213 122C240-48 200 0 122 0H30v-248zM63-27c89 8 146-16 146-99s-60-101-146-95v194" id="W"/><path d="M100-194c62-1 85 37 85 99 1 63-27 99-86 99S16-35 15-95c0-66 28-99 85-99zM99-20c44 1 53-31 53-75 0-43-8-75-51-75s-53 32-53 75 10 74 51 75" id="X"/><path d="M96-169c-40 0-48 33-48 73s9 75 48 75c24 0 41-14 43-38l32 2c-6 37-31 61-74 61-59 0-76-41-82-99-10-93 101-131 147-64 4 7 5 14 7 22l-32 3c-4-21-16-35-41-35" id="Y"/><path d="M143 0L79-87 56-68V0H24v-261h32v163l83-92h37l-77 82L181 0h-38" id="Z"/><path d="M100-194c63 0 86 42 84 106H49c0 40 14 67 53 68 26 1 43-12 49-29l28 8c-11 28-37 45-77 45C44 4 14-33 15-96c1-61 26-98 85-98zm52 81c6-60-76-77-97-28-3 7-6 17-6 28h103" id="aa"/><path d="M114-163C36-179 61-72 57 0H25l-1-190h30c1 12-1 29 2 39 6-27 23-49 58-41v29" id="ab"/><g id="c"><use transform="matrix(0.04320987654320988,0,0,0.04320987654320988,0,0)" xlink:href="#W"/><use transform="matrix(0.04320987654320988,0,0,0.04320987654320988,11.19135802469136,0)" xlink:href="#X"/><use transform="matrix(0.04320987654320988,0,0,0.04320987654320988,19.833333333333336,0)" xlink:href="#Y"/><use transform="matrix(0.04320987654320988,0,0,0.04320987654320988,27.611111111111114,0)" xlink:href="#Z"/><use transform="matrix(0.04320987654320988,0,0,0.04320987654320988,35.38888888888889,0)" xlink:href="#aa"/><use transform="matrix(0.04320987654320988,0,0,0.04320987654320988,44.03086419753087,0)" xlink:href="#ab"/></g><path d="M197 0v-115H63V0H30v-248h33v105h134v-105h34V0h-34" id="ac"/><path d="M135-143c-3-34-86-38-87 0 15 53 115 12 119 90S17 21 10-45l28-5c4 36 97 45 98 0-10-56-113-15-118-90-4-57 82-63 122-42 12 7 21 19 24 35" id="ad"/><path d="M59-47c-2 24 18 29 38 22v24C64 9 27 4 27-40v-127H5v-23h24l9-43h21v43h35v23H59v120" id="ae"/><g id="d"><use transform="matrix(0.04320987654320988,0,0,0.04320987654320988,0,0)" xlink:href="#ac"/><use transform="matrix(0.04320987654320988,0,0,0.04320987654320988,11.19135802469136,0)" xlink:href="#X"/><use transform="matrix(0.04320987654320988,0,0,0.04320987654320988,19.833333333333336,0)" xlink:href="#ad"/><use transform="matrix(0.04320987654320988,0,0,0.04320987654320988,27.611111111111114,0)" xlink:href="#ae"/></g><path d="M212-179c-10-28-35-45-73-45-59 0-87 40-87 99 0 60 29 101 89 101 43 0 62-24 78-52l27 14C228-24 195 4 139 4 59 4 22-46 18-125c-6-104 99-153 187-111 19 9 31 26 39 46" id="af"/><path d="M137 0h-34L2-248h35l83 218 83-218h36" id="ag"/><path d="M30 0v-248h187v28H63v79h144v27H63v87h162V0H30" id="ah"/><g id="e"><use transform="matrix(0.04320987654320988,0,0,0.04320987654320988,0,0)" xlink:href="#af"/><use transform="matrix(0.04320987654320988,0,0,0.04320987654320988,11.19135802469136,0)" xlink:href="#ag"/><use transform="matrix(0.04320987654320988,0,0,0.04320987654320988,21.56172839506173,0)" xlink:href="#ah"/></g><path d="M160-131c35 5 61 23 61 61C221 17 115-2 30 0v-248c76 3 177-17 177 60 0 33-19 50-47 57zm-97-11c50-1 110 9 110-42 0-47-63-36-110-37v79zm0 115c55-2 124 14 124-45 0-56-70-42-124-44v89" id="ai"/><g id="f"><use transform="matrix(0.04320987654320988,0,0,0.04320987654320988,0,0)" xlink:href="#W"/><use transform="matrix(0.04320987654320988,0,0,0.04320987654320988,11.19135802469136,0)" xlink:href="#ai"/></g><path d="M115-194c55 1 70 41 70 98S169 2 115 4C84 4 66-9 55-30l1 105H24l-1-265h31l2 30c10-21 28-34 59-34zm-8 174c40 0 45-34 45-75s-6-73-45-74c-42 0-51 32-51 76 0 43 10 73 51 73" id="aj"/><path d="M84 4C-5 8 30-112 23-190h32v120c0 31 7 50 39 49 72-2 45-101 50-169h31l1 190h-30c-1-10 1-25-2-33-11 22-28 36-60 37" id="ak"/><path d="M24 0v-261h32V0H24" id="al"/><g id="g"><use transform="matrix(0.04320987654320988,0,0,0.04320987654320988,0,0)" xlink:href="#aj"/><use transform="matrix(0.04320987654320988,0,0,0.04320987654320988,8.641975308641976,0)" xlink:href="#ak"/><use transform="matrix(0.04320987654320988,0,0,0.04320987654320988,17.283950617283953,0)" xlink:href="#al"/><use transform="matrix(0.04320987654320988,0,0,0.04320987654320988,20.69753086419753,0)" xlink:href="#al"/></g><path d="M141-36C126-15 110 5 73 4 37 3 15-17 15-53c-1-64 63-63 125-63 3-35-9-54-41-54-24 1-41 7-42 31l-33-3c5-37 33-52 76-52 45 0 72 20 72 64v82c-1 20 7 32 28 27v20c-31 9-61-2-59-35zM48-53c0 20 12 33 32 33 41-3 63-29 60-74-43 2-92-5-92 41" id="am"/><g id="h"><use transform="matrix(0.04320987654320988,0,0,0.04320987654320988,0,0)" xlink:href="#al"/><use transform="matrix(0.04320987654320988,0,0,0.04320987654320988,3.4135802469135808,0)" xlink:href="#am"/><use transform="matrix(0.04320987654320988,0,0,0.04320987654320988,12.055555555555557,0)" xlink:href="#ae"/><use transform="matrix(0.04320987654320988,0,0,0.04320987654320988,16.376543209876544,0)" xlink:href="#aa"/><use transform="matrix(0.04320987654320988,0,0,0.04320987654320988,25.018518518518523,0)" xlink:href="#ad"/><use transform="matrix(0.04320987654320988,0,0,0.04320987654320988,32.7962962962963,0)" xlink:href="#ae"/></g><path d="M24-231v-30h32v30H24zM24 0v-190h32V0H24" id="an"/><path d="M117-194c89-4 53 116 60 194h-32v-121c0-31-8-49-39-48C34-167 62-67 57 0H25l-1-190h30c1 10-1 24 2 32 11-22 29-35 61-36" id="ao"/><path d="M101-234c-31-9-42 10-38 44h38v23H63V0H32v-167H5v-23h27c-7-52 17-82 69-68v24" id="ap"/><path d="M210-169c-67 3-38 105-44 169h-31v-121c0-29-5-50-35-48C34-165 62-65 56 0H25l-1-190h30c1 10-1 24 2 32 10-44 99-50 107 0 11-21 27-35 58-36 85-2 47 119 55 194h-31v-121c0-29-5-49-35-48" id="aq"/><g id="i"><use transform="matrix(0.04320987654320988,0,0,0.04320987654320988,0,0)" xlink:href="#an"/><use transform="matrix(0.04320987654320988,0,0,0.04320987654320988,3.4135802469135808,0)" xlink:href="#ao"/><use transform="matrix(0.04320987654320988,0,0,0.04320987654320988,12.055555555555557,0)" xlink:href="#ap"/><use transform="matrix(0.04320987654320988,0,0,0.04320987654320988,16.376543209876544,0)" xlink:href="#X"/><use transform="matrix(0.04320987654320988,0,0,0.04320987654320988,25.018518518518523,0)" xlink:href="#ab"/><use transform="matrix(0.04320987654320988,0,0,0.04320987654320988,30.160493827160494,0)" xlink:href="#aq"/><use transform="matrix(0.04320987654320988,0,0,0.04320987654320988,43.08024691358025,0)" xlink:href="#am"/><use transform="matrix(0.04320987654320988,0,0,0.04320987654320988,51.722222222222214,0)" xlink:href="#ae"/><use transform="matrix(0.04320987654320988,0,0,0.04320987654320988,56.04320987654321,0)" xlink:href="#an"/><use transform="matrix(0.04320987654320988,0,0,0.04320987654320988,59.456790123456784,0)" xlink:href="#X"/><use transform="matrix(0.04320987654320988,0,0,0.04320987654320988,68.09876543209877,0)" xlink:href="#ao"/></g><path d="M106-169C34-169 62-67 57 0H25v-261h32l-1 103c12-21 28-36 61-36 89 0 53 116 60 194h-32v-121c2-32-8-49-39-48" id="ar"/><g id="j"><use transform="matrix(0.04320987654320988,0,0,0.04320987654320988,0,0)" xlink:href="#ap"/><use transform="matrix(0.04320987654320988,0,0,0.04320987654320988,4.320987654320988,0)" xlink:href="#aa"/><use transform="matrix(0.04320987654320988,0,0,0.04320987654320988,12.962962962962964,0)" xlink:href="#ae"/><use transform="matrix(0.04320987654320988,0,0,0.04320987654320988,17.283950617283953,0)" xlink:href="#Y"/><use transform="matrix(0.04320987654320988,0,0,0.04320987654320988,25.06172839506173,0)" xlink:href="#ar"/></g><path d="M177-190C167-65 218 103 67 71c-23-6-38-20-44-43l32-5c15 47 100 32 89-28v-30C133-14 115 1 83 1 29 1 15-40 15-95c0-56 16-97 71-98 29-1 48 16 59 35 1-10 0-23 2-32h30zM94-22c36 0 50-32 50-73 0-42-14-75-50-75-39 0-46 34-46 75s6 73 46 73" id="as"/><g id="k"><use transform="matrix(0.04320987654320988,0,0,0.04320987654320988,0,0)" xlink:href="#an"/><use transform="matrix(0.04320987654320988,0,0,0.04320987654320988,3.4135802469135808,0)" xlink:href="#aq"/><use transform="matrix(0.04320987654320988,0,0,0.04320987654320988,16.333333333333336,0)" xlink:href="#am"/><use transform="matrix(0.04320987654320988,0,0,0.04320987654320988,24.97530864197531,0)" xlink:href="#as"/><use transform="matrix(0.04320987654320988,0,0,0.04320987654320988,33.617283950617285,0)" xlink:href="#aa"/></g><g id="l"><use transform="matrix(0.04320987654320988,0,0,0.04320987654320988,0,0)" xlink:href="#ap"/><use transform="matrix(0.04320987654320988,0,0,0.04320987654320988,4.320987654320988,0)" xlink:href="#X"/><use transform="matrix(0.04320987654320988,0,0,0.04320987654320988,12.962962962962964,0)" xlink:href="#ab"/></g><path d="M179-190L93 31C79 59 56 82 12 73V49c39 6 53-20 64-50L1-190h34L92-34l54-156h33" id="at"/><g id="m"><use transform="matrix(0.04320987654320988,0,0,0.04320987654320988,0,0)" xlink:href="#am"/><use transform="matrix(0.04320987654320988,0,0,0.04320987654320988,8.641975308641976,0)" xlink:href="#ao"/><use transform="matrix(0.04320987654320988,0,0,0.04320987654320988,17.283950617283953,0)" xlink:href="#am"/><use transform="matrix(0.04320987654320988,0,0,0.04320987654320988,25.925925925925927,0)" xlink:href="#al"/><use transform="matrix(0.04320987654320988,0,0,0.04320987654320988,29.339506172839513,0)" xlink:href="#at"/><use transform="matrix(0.04320987654320988,0,0,0.04320987654320988,37.11728395061729,0)" xlink:href="#ad"/><use transform="matrix(0.04320987654320988,0,0,0.04320987654320988,44.89506172839506,0)" xlink:href="#an"/><use transform="matrix(0.04320987654320988,0,0,0.04320987654320988,48.30864197530866,0)" xlink:href="#ad"/></g><g id="n"><use transform="matrix(0.04320987654320988,0,0,0.04320987654320988,0,0)" xlink:href="#aj"/><use transform="matrix(0.04320987654320988,0,0,0.04320987654320988,8.641975308641976,0)" xlink:href="#ak"/><use transform="matrix(0.04320987654320988,0,0,0.04320987654320988,17.283950617283953,0)" xlink:href="#ad"/><use transform="matrix(0.04320987654320988,0,0,0.04320987654320988,25.06172839506173,0)" xlink:href="#ar"/></g><g id="o"><use transform="matrix(0.04320987654320988,0,0,0.04320987654320988,0,0)" xlink:href="#ab"/><use transform="matrix(0.04320987654320988,0,0,0.04320987654320988,5.1419753086419755,0)" xlink:href="#aa"/><use transform="matrix(0.04320987654320988,0,0,0.04320987654320988,13.783950617283953,0)" xlink:href="#ad"/><use transform="matrix(0.04320987654320988,0,0,0.04320987654320988,21.56172839506173,0)" xlink:href="#ak"/><use transform="matrix(0.04320987654320988,0,0,0.04320987654320988,30.203703703703713,0)" xlink:href="#al"/><use transform="matrix(0.04320987654320988,0,0,0.04320987654320988,33.61728395061729,0)" xlink:href="#ae"/><use transform="matrix(0.04320987654320988,0,0,0.04320987654320988,37.93827160493828,0)" xlink:href="#ad"/></g><g id="p"><use transform="matrix(0.04320987654320988,0,0,0.04320987654320988,0,0)" xlink:href="#ae"/><use transform="matrix(0.04320987654320988,0,0,0.04320987654320988,4.320987654320988,0)" xlink:href="#X"/></g><use transform="matrix(0.04320987654320988,0,0,0.04320987654320988,0,0)" xlink:href="#am" id="q"/><g id="r"><use transform="matrix(0.04320987654320988,0,0,0.04320987654320988,0,0)" xlink:href="#aq"/><use transform="matrix(0.04320987654320988,0,0,0.04320987654320988,12.919753086419755,0)" xlink:href="#X"/><use transform="matrix(0.04320987654320988,0,0,0.04320987654320988,21.56172839506173,0)" xlink:href="#ao"/><use transform="matrix(0.04320987654320988,0,0,0.04320987654320988,30.203703703703713,0)" xlink:href="#an"/><use transform="matrix(0.04320987654320988,0,0,0.04320987654320988,33.61728395061729,0)" xlink:href="#ae"/><use transform="matrix(0.04320987654320988,0,0,0.04320987654320988,37.93827160493828,0)" xlink:href="#X"/><use transform="matrix(0.04320987654320988,0,0,0.04320987654320988,46.580246913580254,0)" xlink:href="#ab"/><use transform="matrix(0.04320987654320988,0,0,0.04320987654320988,51.72222222222223,0)" xlink:href="#an"/><use transform="matrix(0.04320987654320988,0,0,0.04320987654320988,55.13580246913581,0)" xlink:href="#ao"/><use transform="matrix(0.04320987654320988,0,0,0.04320987654320988,63.777777777777786,0)" xlink:href="#as"/></g><g id="s"><use transform="matrix(0.04320987654320988,0,0,0.04320987654320988,0,0)" xlink:href="#ae"/><use transform="matrix(0.04320987654320988,0,0,0.04320987654320988,4.320987654320988,0)" xlink:href="#X"/><use transform="matrix(0.04320987654320988,0,0,0.04320987654320988,12.962962962962964,0)" xlink:href="#X"/><use transform="matrix(0.04320987654320988,0,0,0.04320987654320988,21.604938271604944,0)" xlink:href="#al"/></g><g id="t"><use transform="matrix(0.04320987654320988,0,0,0.04320987654320988,0,0)" xlink:href="#ak"/><use transform="matrix(0.04320987654320988,0,0,0.04320987654320988,8.641975308641976,0)" xlink:href="#ad"/><use transform="matrix(0.04320987654320988,0,0,0.04320987654320988,16.419753086419753,0)" xlink:href="#aa"/></g><g id="u"><use transform="matrix(0.04320987654320988,0,0,0.04320987654320988,0,0)" xlink:href="#an"/><use transform="matrix(0.04320987654320988,0,0,0.04320987654320988,3.4135802469135808,0)" xlink:href="#ao"/><use transform="matrix(0.04320987654320988,0,0,0.04320987654320988,12.055555555555557,0)" xlink:href="#ap"/><use transform="matrix(0.04320987654320988,0,0,0.04320987654320988,16.376543209876544,0)" xlink:href="#X"/></g><g id="v"><use transform="matrix(0.04320987654320988,0,0,0.04320987654320988,0,0)" xlink:href="#ae"/><use transform="matrix(0.04320987654320988,0,0,0.04320987654320988,4.320987654320988,0)" xlink:href="#X"/></g><g id="w"><use transform="matrix(0.04320987654320988,0,0,0.04320987654320988,0,0)" xlink:href="#ad"/><use transform="matrix(0.04320987654320988,0,0,0.04320987654320988,7.777777777777779,0)" xlink:href="#Y"/><use transform="matrix(0.04320987654320988,0,0,0.04320987654320988,15.555555555555557,0)" xlink:href="#am"/><use transform="matrix(0.04320987654320988,0,0,0.04320987654320988,24.19753086419753,0)" xlink:href="#ao"/></g><g id="x"><use transform="matrix(0.04320987654320988,0,0,0.04320987654320988,0,0)" xlink:href="#Y"/><use transform="matrix(0.04320987654320988,0,0,0.04320987654320988,7.777777777777779,0)" xlink:href="#X"/><use transform="matrix(0.04320987654320988,0,0,0.04320987654320988,16.419753086419753,0)" xlink:href="#ao"/><use transform="matrix(0.04320987654320988,0,0,0.04320987654320988,25.061728395061728,0)" xlink:href="#ae"/><use transform="matrix(0.04320987654320988,0,0,0.04320987654320988,29.382716049382715,0)" xlink:href="#am"/><use transform="matrix(0.04320987654320988,0,0,0.04320987654320988,38.02469135802469,0)" xlink:href="#an"/><use transform="matrix(0.04320987654320988,0,0,0.04320987654320988,41.43827160493827,0)" xlink:href="#ao"/><use transform="matrix(0.04320987654320988,0,0,0.04320987654320988,50.08024691358024,0)" xlink:href="#aa"/><use transform="matrix(0.04320987654320988,0,0,0.04320987654320988,58.72222222222222,0)" xlink:href="#ab"/></g><g id="y"><use transform="matrix(0.04320987654320988,0,0,0.04320987654320988,0,0)" xlink:href="#an"/><use transform="matrix(0.04320987654320988,0,0,0.04320987654320988,3.4135802469135808,0)" xlink:href="#aq"/><use transform="matrix(0.04320987654320988,0,0,0.04320987654320988,16.333333333333336,0)" xlink:href="#am"/><use transform="matrix(0.04320987654320988,0,0,0.04320987654320988,24.97530864197531,0)" xlink:href="#as"/><use transform="matrix(0.04320987654320988,0,0,0.04320987654320988,33.617283950617285,0)" xlink:href="#aa"/></g><g id="z"><use transform="matrix(0.04320987654320988,0,0,0.04320987654320988,0,0)" xlink:href="#an"/><use transform="matrix(0.04320987654320988,0,0,0.04320987654320988,3.4135802469135808,0)" xlink:href="#aq"/><use transform="matrix(0.04320987654320988,0,0,0.04320987654320988,16.333333333333336,0)" xlink:href="#am"/><use transform="matrix(0.04320987654320988,0,0,0.04320987654320988,24.97530864197531,0)" xlink:href="#as"/><use transform="matrix(0.04320987654320988,0,0,0.04320987654320988,33.617283950617285,0)" xlink:href="#aa"/></g><g id="A"><use transform="matrix(0.04320987654320988,0,0,0.04320987654320988,0,0)" xlink:href="#ab"/><use transform="matrix(0.04320987654320988,0,0,0.04320987654320988,5.1419753086419755,0)" xlink:href="#ak"/><use transform="matrix(0.04320987654320988,0,0,0.04320987654320988,13.783950617283953,0)" xlink:href="#ao"/></g><g id="B"><use transform="matrix(0.02469135802469136,0,0,0.02469135802469136,0,0)" xlink:href="#P"/><use transform="matrix(0.02469135802469136,0,0,0.02469135802469136,5.9259259259259265,0)" xlink:href="#Q"/><use transform="matrix(0.02469135802469136,0,0,0.02469135802469136,8.395061728395063,0)" xlink:href="#R"/><use transform="matrix(0.02469135802469136,0,0,0.02469135802469136,14.790123456790127,0)" xlink:href="#Q"/><use transform="matrix(0.02469135802469136,0,0,0.02469135802469136,17.259259259259263,0)" xlink:href="#S"/><use transform="matrix(0.02469135802469136,0,0,0.02469135802469136,22.66666666666667,0)" xlink:href="#T"/></g><path d="M199 0l-22-63H83L61 0H9l90-248h61L250 0h-51zm-33-102l-36-108c-10 38-24 72-36 108h72" id="au"/><path d="M67-125c0 54 23 88 75 88 28 0 53-7 68-21v-34h-60v-39h108v91C232-14 192 4 140 4 58 4 20-42 15-125 8-236 126-280 215-234c19 10 29 26 37 47l-47 15c-11-23-29-39-63-39-53 1-75 33-75 86" id="av"/><path d="M175 0L67-191c6 58 2 128 3 191H24v-248h59L193-55c-6-58-2-129-3-193h46V0h-61" id="aw"/><g id="C"><use transform="matrix(0.02469135802469136,0,0,0.02469135802469136,0,0)" xlink:href="#au"/><use transform="matrix(0.02469135802469136,0,0,0.02469135802469136,6.395061728395063,0)" xlink:href="#av"/><use transform="matrix(0.02469135802469136,0,0,0.02469135802469136,13.308641975308642,0)" xlink:href="#V"/><use transform="matrix(0.02469135802469136,0,0,0.02469135802469136,19.23456790123457,0)" xlink:href="#aw"/><use transform="matrix(0.02469135802469136,0,0,0.02469135802469136,25.629629629629633,0)" xlink:href="#S"/></g><g id="D"><use transform="matrix(0.04320987654320988,0,0,0.04320987654320988,0,0)" xlink:href="#aj"/><use transform="matrix(0.04320987654320988,0,0,0.04320987654320988,8.641975308641976,0)" xlink:href="#ak"/><use transform="matrix(0.04320987654320988,0,0,0.04320987654320988,17.283950617283953,0)" xlink:href="#ad"/><use transform="matrix(0.04320987654320988,0,0,0.04320987654320988,25.06172839506173,0)" xlink:href="#ar"/></g><g id="E"><use transform="matrix(0.04320987654320988,0,0,0.04320987654320988,0,0)" xlink:href="#af"/><use transform="matrix(0.04320987654320988,0,0,0.04320987654320988,11.19135802469136,0)" xlink:href="#X"/><use transform="matrix(0.04320987654320988,0,0,0.04320987654320988,19.833333333333336,0)" xlink:href="#ao"/><use transform="matrix(0.04320987654320988,0,0,0.04320987654320988,28.47530864197531,0)" xlink:href="#ae"/><use transform="matrix(0.04320987654320988,0,0,0.04320987654320988,32.7962962962963,0)" xlink:href="#am"/><use transform="matrix(0.04320987654320988,0,0,0.04320987654320988,41.43827160493827,0)" xlink:href="#an"/><use transform="matrix(0.04320987654320988,0,0,0.04320987654320988,44.851851851851855,0)" xlink:href="#ao"/><use transform="matrix(0.04320987654320988,0,0,0.04320987654320988,53.49382716049383,0)" xlink:href="#aa"/><use transform="matrix(0.04320987654320988,0,0,0.04320987654320988,62.1358024691358,0)" xlink:href="#ab"/></g><path d="M233-177c-1 41-23 64-60 70L243 0h-38l-65-103H63V0H30v-248c88 3 205-21 203 71zM63-129c60-2 137 13 137-47 0-61-80-42-137-45v92" id="ax"/><g id="F"><use transform="matrix(0.04320987654320988,0,0,0.04320987654320988,0,0)" xlink:href="#ax"/><use transform="matrix(0.04320987654320988,0,0,0.04320987654320988,11.19135802469136,0)" xlink:href="#aa"/><use transform="matrix(0.04320987654320988,0,0,0.04320987654320988,19.833333333333336,0)" xlink:href="#as"/><use transform="matrix(0.04320987654320988,0,0,0.04320987654320988,28.47530864197531,0)" xlink:href="#an"/><use transform="matrix(0.04320987654320988,0,0,0.04320987654320988,31.888888888888893,0)" xlink:href="#ad"/><use transform="matrix(0.04320987654320988,0,0,0.04320987654320988,39.66666666666667,0)" xlink:href="#ae"/><use transform="matrix(0.04320987654320988,0,0,0.04320987654320988,43.98765432098766,0)" xlink:href="#ab"/><use transform="matrix(0.04320987654320988,0,0,0.04320987654320988,49.12962962962963,0)" xlink:href="#at"/></g><path d="M115-194c53 0 69 39 70 98 0 66-23 100-70 100C84 3 66-7 56-30L54 0H23l1-261h32v101c10-23 28-34 59-34zm-8 174c40 0 45-34 45-75 0-40-5-75-45-74-42 0-51 32-51 76 0 43 10 73 51 73" id="ay"/><g id="G"><use transform="matrix(0.04320987654320988,0,0,0.04320987654320988,0,0)" xlink:href="#ag"/><use transform="matrix(0.04320987654320988,0,0,0.04320987654320988,9.808641975308644,0)" xlink:href="#ak"/><use transform="matrix(0.04320987654320988,0,0,0.04320987654320988,18.45061728395062,0)" xlink:href="#al"/><use transform="matrix(0.04320987654320988,0,0,0.04320987654320988,21.864197530864203,0)" xlink:href="#ao"/><use transform="matrix(0.04320987654320988,0,0,0.04320987654320988,30.506172839506178,0)" xlink:href="#aa"/><use transform="matrix(0.04320987654320988,0,0,0.04320987654320988,39.14814814814815,0)" xlink:href="#ab"/><use transform="matrix(0.04320987654320988,0,0,0.04320987654320988,44.29012345679013,0)" xlink:href="#am"/><use transform="matrix(0.04320987654320988,0,0,0.04320987654320988,52.9320987654321,0)" xlink:href="#ay"/><use transform="matrix(0.04320987654320988,0,0,0.04320987654320988,61.57407407407408,0)" xlink:href="#an"/><use transform="matrix(0.04320987654320988,0,0,0.04320987654320988,64.98765432098766,0)" xlink:href="#al"/><use transform="matrix(0.04320987654320988,0,0,0.04320987654320988,68.40123456790124,0)" xlink:href="#an"/><use transform="matrix(0.04320987654320988,0,0,0.04320987654320988,71.81481481481482,0)" xlink:href="#ae"/><use transform="matrix(0.04320987654320988,0,0,0.04320987654320988,76.13580246913581,0)" xlink:href="#at"/></g><path d="M185-189c-5-48-123-54-124 2 14 75 158 14 163 119 3 78-121 87-175 55-17-10-28-26-33-46l33-7c5 56 141 63 141-1 0-78-155-14-162-118-5-82 145-84 179-34 5 7 8 16 11 25" id="az"/><g id="H"><use transform="matrix(0.04320987654320988,0,0,0.04320987654320988,0,0)" xlink:href="#az"/><use transform="matrix(0.04320987654320988,0,0,0.04320987654320988,10.370370370370372,0)" xlink:href="#Y"/><use transform="matrix(0.04320987654320988,0,0,0.04320987654320988,18.148148148148152,0)" xlink:href="#am"/><use transform="matrix(0.04320987654320988,0,0,0.04320987654320988,26.790123456790127,0)" xlink:href="#ao"/><use transform="matrix(0.04320987654320988,0,0,0.04320987654320988,35.4320987654321,0)" xlink:href="#ao"/><use transform="matrix(0.04320987654320988,0,0,0.04320987654320988,44.074074074074076,0)" xlink:href="#aa"/><use transform="matrix(0.04320987654320988,0,0,0.04320987654320988,52.71604938271606,0)" xlink:href="#ab"/></g><path d="M240 0l2-218c-23 76-54 145-80 218h-23L58-218 59 0H30v-248h44l77 211c21-75 51-140 76-211h43V0h-30" id="aA"/><g id="I"><use transform="matrix(0.04320987654320988,0,0,0.04320987654320988,0,0)" xlink:href="#aA"/><use transform="matrix(0.04320987654320988,0,0,0.04320987654320988,12.919753086419755,0)" xlink:href="#X"/><use transform="matrix(0.04320987654320988,0,0,0.04320987654320988,21.56172839506173,0)" xlink:href="#ao"/><use transform="matrix(0.04320987654320988,0,0,0.04320987654320988,30.203703703703713,0)" xlink:href="#an"/><use transform="matrix(0.04320987654320988,0,0,0.04320987654320988,33.61728395061729,0)" xlink:href="#ae"/><use transform="matrix(0.04320987654320988,0,0,0.04320987654320988,37.93827160493828,0)" xlink:href="#X"/><use transform="matrix(0.04320987654320988,0,0,0.04320987654320988,46.580246913580254,0)" xlink:href="#ab"/></g><path d="M33 0v-248h34V0H33" id="aB"/><g id="J"><use transform="matrix(0.04320987654320988,0,0,0.04320987654320988,0,0)" xlink:href="#aB"/><use transform="matrix(0.04320987654320988,0,0,0.04320987654320988,4.320987654320988,0)" xlink:href="#ao"/><use transform="matrix(0.04320987654320988,0,0,0.04320987654320988,12.962962962962964,0)" xlink:href="#ap"/><use transform="matrix(0.04320987654320988,0,0,0.04320987654320988,17.283950617283953,0)" xlink:href="#X"/><use transform="matrix(0.04320987654320988,0,0,0.04320987654320988,25.925925925925927,0)" xlink:href="#ab"/><use transform="matrix(0.04320987654320988,0,0,0.04320987654320988,31.067901234567906,0)" xlink:href="#aq"/><use transform="matrix(0.04320987654320988,0,0,0.04320987654320988,43.98765432098766,0)" xlink:href="#am"/><use transform="matrix(0.04320987654320988,0,0,0.04320987654320988,52.62962962962963,0)" xlink:href="#ae"/><use transform="matrix(0.04320987654320988,0,0,0.04320987654320988,56.95061728395062,0)" xlink:href="#an"/><use transform="matrix(0.04320987654320988,0,0,0.04320987654320988,60.3641975308642,0)" xlink:href="#X"/><use transform="matrix(0.04320987654320988,0,0,0.04320987654320988,69.00617283950618,0)" xlink:href="#ao"/></g><path d="M143 4C61 4 22-44 18-125c-5-107 100-154 193-111 17 8 29 25 37 43l-32 9c-13-25-37-40-76-40-61 0-88 39-88 99 0 61 29 100 91 101 35 0 62-11 79-27v-45h-74v-28h105v86C228-13 192 4 143 4" id="aC"/><g id="K"><use transform="matrix(0.04320987654320988,0,0,0.04320987654320988,0,0)" xlink:href="#aC"/><use transform="matrix(0.04320987654320988,0,0,0.04320987654320988,12.098765432098766,0)" xlink:href="#am"/><use transform="matrix(0.04320987654320988,0,0,0.04320987654320988,20.74074074074074,0)" xlink:href="#ae"/><use transform="matrix(0.04320987654320988,0,0,0.04320987654320988,25.061728395061728,0)" xlink:href="#ar"/><use transform="matrix(0.04320987654320988,0,0,0.04320987654320988,33.7037037037037,0)" xlink:href="#aa"/><use transform="matrix(0.04320987654320988,0,0,0.04320987654320988,42.34567901234568,0)" xlink:href="#ab"/><use transform="matrix(0.04320987654320988,0,0,0.04320987654320988,47.48765432098765,0)" xlink:href="#an"/><use transform="matrix(0.04320987654320988,0,0,0.04320987654320988,50.90123456790123,0)" xlink:href="#ao"/><use transform="matrix(0.04320987654320988,0,0,0.04320987654320988,59.54320987654321,0)" xlink:href="#as"/></g><g id="L"><use transform="matrix(0.04320987654320988,0,0,0.04320987654320988,0,0)" xlink:href="#az"/><use transform="matrix(0.04320987654320988,0,0,0.04320987654320988,10.370370370370372,0)" xlink:href="#Y"/><use transform="matrix(0.04320987654320988,0,0,0.04320987654320988,18.148148148148152,0)" xlink:href="#am"/><use transform="matrix(0.04320987654320988,0,0,0.04320987654320988,26.790123456790127,0)" xlink:href="#ao"/></g><path d="M85-194c31 0 48 13 60 33l-1-100h32l1 261h-30c-2-10 0-23-3-31C134-8 116 4 85 4 32 4 16-35 15-94c0-66 23-100 70-100zm9 24c-40 0-46 34-46 75 0 40 6 74 45 74 42 0 51-32 51-76 0-42-9-74-50-73" id="aD"/><g id="M"><use transform="matrix(0.04320987654320988,0,0,0.04320987654320988,0,0)" xlink:href="#ac"/><use transform="matrix(0.04320987654320988,0,0,0.04320987654320988,11.19135802469136,0)" xlink:href="#am"/><use transform="matrix(0.04320987654320988,0,0,0.04320987654320988,19.833333333333336,0)" xlink:href="#ao"/><use transform="matrix(0.04320987654320988,0,0,0.04320987654320988,28.47530864197531,0)" xlink:href="#aD"/><use transform="matrix(0.04320987654320988,0,0,0.04320987654320988,37.117283950617285,0)" xlink:href="#al"/><use transform="matrix(0.04320987654320988,0,0,0.04320987654320988,40.53086419753087,0)" xlink:href="#aa"/></g><g id="N"><use transform="matrix(0.04320987654320988,0,0,0.04320987654320988,0,0)" xlink:href="#ax"/><use transform="matrix(0.04320987654320988,0,0,0.04320987654320988,11.19135802469136,0)" xlink:href="#aa"/><use transform="matrix(0.04320987654320988,0,0,0.04320987654320988,19.833333333333336,0)" xlink:href="#ad"/><use transform="matrix(0.04320987654320988,0,0,0.04320987654320988,27.611111111111114,0)" xlink:href="#ak"/><use transform="matrix(0.04320987654320988,0,0,0.04320987654320988,36.25308641975309,0)" xlink:href="#al"/><use transform="matrix(0.04320987654320988,0,0,0.04320987654320988,39.66666666666667,0)" xlink:href="#ae"/><use transform="matrix(0.04320987654320988,0,0,0.04320987654320988,43.98765432098766,0)" xlink:href="#ad"/></g><path d="M16-82v-28h88v28H16" id="aE"/><g id="O"><use transform="matrix(0.04320987654320988,0,0,0.04320987654320988,0,0)" xlink:href="#W"/><use transform="matrix(0.04320987654320988,0,0,0.04320987654320988,11.19135802469136,0)" xlink:href="#am"/><use transform="matrix(0.04320987654320988,0,0,0.04320987654320988,19.833333333333336,0)" xlink:href="#ae"/><use transform="matrix(0.04320987654320988,0,0,0.04320987654320988,24.154320987654323,0)" xlink:href="#am"/><use transform="matrix(0.04320987654320988,0,0,0.04320987654320988,32.7962962962963,0)" xlink:href="#aE"/><use transform="matrix(0.04320987654320988,0,0,0.04320987654320988,37.93827160493827,0)" xlink:href="#az"/><use transform="matrix(0.04320987654320988,0,0,0.04320987654320988,48.308641975308646,0)" xlink:href="#ae"/><use transform="matrix(0.04320987654320988,0,0,0.04320987654320988,52.62962962962963,0)" xlink:href="#X"/><use transform="matrix(0.04320987654320988,0,0,0.04320987654320988,61.27160493827161,0)" xlink:href="#ab"/><use transform="matrix(0.04320987654320988,0,0,0.04320987654320988,66.41358024691358,0)" xlink:href="#aa"/></g></defs></g></svg>