<?xml version="1.0" encoding="utf-8"?>
<!-- Generator: Adobe Illustrator 16.0.0, SVG Export Plug-In . SVG Version: 6.00 Build 0)  -->
<!DOCTYPE svg PUBLIC "-//W3C//DTD SVG 1.1//EN" "http://www.w3.org/Graphics/SVG/1.1/DTD/svg11.dtd">
<svg version="1.1" id="Capa_1" xmlns="http://www.w3.org/2000/svg" xmlns:xlink="http://www.w3.org/1999/xlink" x="0px" y="0px"
	 width="100px" height="100px" viewBox="-8.271 27.896 488 488" enable-background="new -8.271 27.896 488 488"
	 xml:space="preserve">
<g id="Background">
	<g>
		<path fill="#00A0E1" d="M235.729,27.896c-134.757,0-244,109.243-244,244c0,134.758,109.243,244,244,244
			c4.176,0,8.326-0.106,12.45-0.313c125.62-6.313,226.181-107.634,231.324-233.559c0.138-3.36,0.226-6.733,0.226-10.128
			C479.729,137.139,370.487,27.896,235.729,27.896z"/>
		<path opacity="0.3" fill="#303030" d="M479.504,282.024l-43.307-43.926l-37.938,47.198l-76.956-77.763l-11.768,20.438
			l-31.638-31.499l-71.041,28.792l-61.028-61.149l-25.932,23.281L31.445,297.837L248.18,515.583
			C373.8,509.269,474.36,407.949,479.504,282.024z"/>
	</g>
</g>
<g id="Icon">
	<path fill="#FFFFFF" d="M456.28,259.961c-0.924-1.168-23.058-28.933-61-56.81c-22.511-16.538-45.9-29.606-69.648-39.035
		c29.926,25.463,48.918,63.395,48.918,105.768s-18.992,80.306-48.92,105.769c23.75-9.429,47.141-22.496,69.648-39.035
		c37.944-27.875,60.078-55.641,61-56.809l7.848-9.925L456.28,259.961z"/>
	<path fill="#FFFFFF" d="M145.829,164.115c-23.749,9.429-47.14,22.497-69.649,39.035c-37.944,27.876-60.077,55.642-61,56.81
		l-7.846,9.923l7.846,9.924c0.923,1.168,23.056,28.934,61,56.811c22.51,16.537,45.9,29.605,69.649,39.035
		C115.9,350.19,96.91,312.256,96.91,269.883S115.9,189.578,145.829,164.115z"/>
	<path fill="#FFFFFF" d="M239.257,175.368c-2.108-1.536-4.965-1.536-7.074,0c-10.068,7.331-40.668,27.369-78.166,30.878
		c-4.512,0.413-7.98,4.157-8.059,8.688c-0.3,19.556,1.683,70.073,27.106,108.522l104.833-126.984
		C259.388,189.158,245.451,179.869,239.257,175.368z"/>
	<path fill="#FFFFFF" d="M317.443,206.246c-2.273-0.213-4.521-0.489-6.74-0.816L193.867,346.951
		c10.679,8.928,23.703,16.05,39.597,20.318c1.479,0.395,3.035,0.395,4.513,0c83.211-22.326,87.959-122.758,87.526-152.335
		C325.443,210.403,321.956,206.659,317.443,206.246z"/>
</g>
</svg>
